<svg width="61" height="61" viewBox="0 0 61 61" fill="none" xmlns="http://www.w3.org/2000/svg">
<path d="M31.4882 48.9757C28.5676 49.1627 25.7353 49.0586 22.8412 49.0092C19.55 49.0092 15.6271 49.8668 13.1618 46.9992C11.4571 45.0157 11.6618 42.0068 12.5406 39.5433C13.16 37.8086 14.0794 36.0351 13.7371 34.2245C13.4777 32.8533 12.5282 31.7151 12.1065 30.3863C11.6953 29.091 11.8118 27.5063 12.5141 26.3274C13.1547 25.2474 14.1853 24.688 14.3988 23.3186C14.5153 22.5669 14.3071 21.8098 14.1853 21.058C13.1882 14.8974 18.1753 10.5845 23.09 7.99921C26.1041 6.41097 29.7235 5.68392 32.9724 7.02156C33.2117 7.14031 33.4695 7.2173 33.7347 7.24921C33.9773 7.23909 34.2184 7.206 34.4547 7.15039C38.4959 6.55391 43.73 13.761 42.6147 17.4157C42.2759 18.5221 41.7429 19.6692 42.0429 20.788C42.4859 22.4363 44.5647 23.3116 44.8223 24.9986C45.1012 26.818 43.0665 28.4468 43.4671 30.2451C43.7035 31.3039 44.7112 31.9957 45.35 32.8798C45.8294 33.552 46.1035 34.349 46.1388 35.1739C46.1635 35.6833 46.0947 36.1928 45.9359 36.6774C45.4594 38.1157 44.1959 39.4233 44.5118 40.9127C44.8859 42.6774 47.1588 43.3021 47.0406 45.3104C46.9753 46.3833 46.0347 47.2145 45.0412 47.6221C44.326 47.8923 43.5893 48.1012 42.8388 48.2468C42.2847 48.3704 41.7959 48.2592 41.2418 48.3157C39.6994 48.4727 38.1782 48.7145 36.6253 48.8027C34.9241 48.8874 33.2 48.8663 31.4882 48.9757Z" fill="url(#paint0_linear_60_962)"/>
<path d="M50.5259 47.9698C38.7292 57.0529 22.2749 56.9803 10.5588 47.7933L19.1459 43.768C19.4087 43.6437 19.665 43.5059 19.9135 43.355L20.1112 43.2315C20.1818 43.1874 20.2506 43.1415 20.3194 43.0939C21.4028 42.3465 22.2907 41.3497 22.9083 40.1874C23.6141 38.855 23.8471 37.3833 23.8577 35.8833C23.8577 34.8739 23.803 33.8645 23.7924 32.8533C23.7853 32.2933 23.7794 31.7339 23.7747 31.175L24.1277 31.3515L25.0453 31.8262L30.3906 32.735L35.8824 33.6703L36.0483 39.3174L36.1312 42.118L38.1553 42.9421L39.7436 43.5845L50.5259 47.9698Z" fill="#E18477"/>
<path d="M36.0394 37.8563C35.5594 38.1528 35.1059 38.2922 34.7088 38.2498C32.0988 37.9692 27.0077 35.924 23.803 32.1387C23.803 31.954 23.7994 31.7687 23.7924 31.5828C23.7853 31.024 23.7794 30.4645 23.7747 29.9045L24.1277 30.081L25.0453 30.5557L30.3906 31.4645L35.8824 32.3998L36.0394 37.8563Z" fill="#A76962"/>
<ellipse cx="19.363" cy="25.4839" rx="3" ry="3" fill="#E18477"/>
<ellipse cx="20.4218" cy="25.131" rx="3" ry="3" fill="#A76962"/>
<path d="M39.7524 20.9892C41.8242 28.1697 37.423 36.8521 34.7159 36.8521C31.01 36.8521 22.01 33.8927 19.94 26.7121C17.87 19.5315 20.63 12.4286 26.1006 10.8492C31.5712 9.26974 37.6789 13.8103 39.7524 20.9892Z" fill="#E18477"/>
<path d="M28.2041 22.2368C29.2806 22.2368 29.2806 23.8921 28.2041 23.8992H28.1547C27.0782 23.8992 27.0782 22.2456 28.1547 22.2368H28.2041Z" fill="#00214E"/>
<path d="M37.0418 21.9916C38.0424 21.9916 38.0424 23.5269 37.0418 23.5357H36.9977C35.9988 23.5357 35.9988 21.9986 36.9977 21.9916H37.0418Z" fill="#00214E"/>
<path d="M33.1736 12.2874C33.1524 12.3351 33.1312 12.3845 33.1083 12.4339C32.5917 13.5259 31.9109 14.5323 31.0895 15.418C29.4571 17.218 27.4118 18.6227 25.2906 19.7892C24.0669 20.4872 22.8009 21.1084 21.5 21.6492C19.6242 22.3957 18.0342 22.768 17.983 22.821C17.8189 20.7227 16.6718 16.3215 22.363 12.0121C26.9512 8.54096 33.6024 8.81272 33.6024 8.81272C33.5812 10.1204 33.6889 11.0874 33.1736 12.2874Z" fill="url(#paint1_linear_60_962)"/>
<path d="M33.23 21.3228C33.2159 21.3845 34.7053 27.7481 34.7053 27.7481H32.4995" stroke="#00214E"/>
<path d="M35.2524 19.5228C36.4991 18.8876 37.9411 18.7513 39.2848 19.1416" stroke="#00214E"/>
<path d="M25.527 20.1756C27.2459 19.2982 29.2667 19.2335 31.0382 19.9992" stroke="#00214E"/>
<path d="M50.5259 47.9697C38.7292 57.0529 22.2749 56.9803 10.5588 47.7933L19.1459 43.768C19.5548 43.5757 19.9473 43.3503 20.3194 43.0938C20.4324 43.0162 20.5453 42.935 20.653 42.8503C21.5875 42.1352 22.3568 41.2269 22.9083 40.1874C23.3252 39.3886 23.6021 38.5244 23.7271 37.6321C23.8517 37.7528 23.9825 37.8671 24.1188 37.9744C25.2009 38.7746 26.3752 39.4417 27.6165 39.9615C28.2191 40.2129 28.8354 40.4303 29.4624 40.6127C31.3513 41.1635 33.3235 41.3721 35.2859 41.2286C35.5577 41.2074 35.8312 41.1809 36.103 41.1615L36.1294 42.058V42.1162L38.2647 42.9844L50.5259 47.9697Z" fill="url(#paint2_linear_60_962)"/>
<rect x="20.7864" y="12.6123" width="4.95176" height="1.71706" rx="0.858529" transform="rotate(20.94 20.7864 12.6123)" fill="#FF2609"/>
<rect width="4.95177" height="1.71705" rx="0.858527" transform="matrix(0.933956 0.357389 -0.357392 0.933955 19.6121 15.2299)" fill="#F2D4CF"/>
<path d="M28.6436 29.0257C28.6917 28.9478 28.7703 28.8937 28.8602 28.8766C28.9502 28.8595 29.0431 28.8809 29.1165 28.9357C29.4836 29.1951 30.1541 29.7404 31.1071 29.931C32.4059 30.1886 33.5335 29.6698 33.8018 30.0051C33.9535 30.1939 33.7682 30.4233 33.4135 30.7198C32.6624 31.2802 31.7171 31.5143 30.7912 31.3692C29.5418 31.1363 28.603 29.6874 28.603 29.1757C28.6027 29.1229 28.6168 29.0711 28.6436 29.0257Z" fill="white"/>
<defs>
<linearGradient id="paint0_linear_60_962" x1="28.8151" y1="70.2496" x2="62.5767" y2="40.1538" gradientUnits="userSpaceOnUse">
<stop stop-color="#16243F"/>
<stop offset="1" stop-color="#6878B1"/>
</linearGradient>
<linearGradient id="paint1_linear_60_962" x1="23.3244" y1="28.7114" x2="36.1645" y2="15.1019" gradientUnits="userSpaceOnUse">
<stop stop-color="#16243F"/>
<stop offset="1" stop-color="#6878B1"/>
</linearGradient>
<linearGradient id="paint2_linear_60_962" x1="10.5588" y1="54.7379" x2="50.5259" y2="54.7379" gradientUnits="userSpaceOnUse">
<stop stop-color="#315676"/>
<stop offset="1" stop-color="#E1B9E0"/>
</linearGradient>
</defs>
</svg>
