<svg width="61" height="61" viewBox="0 0 61 61" fill="none" xmlns="http://www.w3.org/2000/svg">
<path fill-rule="evenodd" clip-rule="evenodd" d="M37.4071 8.7707C42.6977 12.2225 43.7424 18.646 43.8147 24.5031C43.8453 26.9792 43.8219 29.4446 43.7986 31.9068C43.7533 36.6968 43.708 41.4746 44.06 46.2954C44.0353 45.9513 38.4571 45.1236 37.82 45.0954C36.4807 45.0375 35.0954 45.1633 33.7257 45.2877C33.0507 45.3489 32.3795 45.4099 31.7194 45.4483C30.5682 45.5203 29.3913 45.5492 28.208 45.5782C25.9393 45.6338 23.6469 45.69 21.4665 46.0519C21.0437 46.1222 20.6265 46.1935 20.2127 46.2641C18.0219 46.6381 15.9268 46.9957 13.6083 47.1248C13.425 47.1566 13.2364 47.1196 13.0788 47.0207C12.9024 46.876 12.9024 46.6148 12.9024 46.3872C12.9024 43.6595 13.0246 40.9331 13.1467 38.2087C13.3191 34.3605 13.4914 30.5164 13.3188 26.6789C13.1653 23.4142 13.7067 20.1541 14.9071 17.1142C15.9327 14.4928 17.5416 12.1392 19.6118 10.2319C20.1738 9.72393 20.7771 9.26352 21.4153 8.85541C26.1571 5.806 32.63 5.65423 37.4071 8.7707ZM21.8494 22.0007L24.3359 23.7654L32.3477 15.7554L31.34 15.1184C30.3796 16.746 29.0617 18.1339 27.4859 19.1772C25.7456 20.3727 23.849 21.3228 21.8494 22.0007Z" fill="#00214E"/>
<path d="M50.5259 47.5678C38.7292 56.651 22.2749 56.5783 10.5588 47.3913L19.1459 43.366C19.4087 43.2417 19.665 43.1039 19.9135 42.9531L20.1112 42.8296C20.1818 42.7854 20.2506 42.7396 20.3194 42.6919C21.4028 41.9445 22.2907 40.9477 22.9083 39.7854C23.6141 38.4531 23.8471 36.9813 23.8577 35.4813C23.8577 34.6572 23.8241 33.8331 23.803 33.0107C23.803 32.826 23.7994 32.6407 23.7924 32.4548C23.7853 31.896 23.7794 31.3366 23.7747 30.7766H23.7871L24.1241 30.9531L25.0418 31.4278L30.3871 32.3366L35.8788 33.2719L36.0041 37.5072L36.0394 38.7213V38.9101L36.1224 41.7107L38.1465 42.5348L39.7347 43.1772L50.5259 47.5678Z" fill="#F2A196"/>
<path d="M36.0041 37.5089C35.6238 37.7694 35.1694 37.9 34.7088 37.8813C32.1006 37.6007 27.0077 35.5554 23.8065 31.7701C23.8065 31.5854 23.803 31.4001 23.7959 31.2142V30.7783L24.133 30.9548L25.0506 31.4295L30.3959 32.3383L35.8877 33.2736L36.0041 37.5089Z" fill="#E88870"/>
<circle cx="19.3629" cy="25.1243" r="3" fill="#F2A196"/>
<ellipse cx="20.4218" cy="24.7712" rx="3" ry="3" fill="#E88870"/>
<path d="M39.7524 20.5819C41.8241 27.7607 37.4229 36.4413 34.7159 36.4413C31.01 36.4413 22.01 33.4801 19.94 26.3013C17.87 19.1225 20.63 12.0213 26.1006 10.4436C31.5712 8.86599 37.6806 13.4013 39.7524 20.5819Z" fill="#F2A196"/>
<path d="M29.5082 29.3031C30.3558 30.2505 31.5183 30.8581 32.78 31.0131" stroke="#00214E" stroke-width="0.2"/>
<path d="M33.1471 21.3372C33.1382 21.3725 33.9924 22.8477 34.4371 24.4413C34.6436 25.2937 34.7397 26.1691 34.723 27.046H32.3388" stroke="#00214E" stroke-width="0.2"/>
<path d="M35.3371 19.8354C36.5838 19.2002 38.0257 19.0639 39.3694 19.4542" stroke="#00214E" stroke-width="0.2"/>
<path d="M24.8988 20.5377C26.6182 19.662 28.6382 19.5973 30.41 20.3613" stroke="#00214E" stroke-width="0.2"/>
<path d="M27.9941 22.1013C29.0706 22.1101 29.0706 23.7566 27.9941 23.7637H27.9465C26.87 23.7637 26.87 22.1101 27.9465 22.1013H27.9941Z" fill="#00214E"/>
<path d="M36.8406 21.856C37.8394 21.856 37.8394 23.3913 36.8406 23.3983H36.7965C35.7959 23.3983 35.7959 21.863 36.7965 21.856H36.8406Z" fill="#00214E"/>
<path d="M33.3235 8.55896C33.2415 9.39001 33.1077 10.2151 32.9229 11.0295C32.6072 12.4667 32.0715 13.8465 31.3347 15.1201C30.3743 16.7478 29.0564 18.1357 27.4806 19.179C25.7403 20.3744 23.8437 21.3245 21.8441 22.0025C20.2606 22.5404 18.6413 22.9667 16.9982 23.2784C17.053 21.9319 16.9982 20.266 17.1641 18.7025C17.2877 17.5801 17.5347 16.509 18.0324 15.646C19.3826 13.3627 21.3522 11.5087 23.713 10.299L23.7341 10.2884C26.3441 8.94543 30.3871 7.62014 33.3235 8.55896Z" fill="#00214E"/>
<path d="M50.5259 47.5678C38.7292 56.6509 22.2749 56.5783 10.5588 47.3913L19.1459 43.366C19.5548 43.1737 19.9473 42.9483 20.3194 42.6919C20.4324 42.6142 20.5453 42.533 20.653 42.4483C21.5875 41.7333 22.3568 40.8249 22.9083 39.7854C23.3252 38.9867 23.6021 38.1224 23.7271 37.2301C23.8517 37.3509 23.9825 37.4651 24.1188 37.5725C25.2008 38.3732 26.3751 39.0409 27.6165 39.5613C28.2191 39.8127 28.8354 40.0301 29.4624 40.2125C31.3513 40.7633 33.3235 40.9718 35.2859 40.8283C35.5577 40.8072 35.8312 40.7807 36.103 40.7613L36.1294 41.6578V41.716L38.2647 42.5842L50.5259 47.5678Z" fill="#F2D4CF"/>
<path d="M31.3312 15.1272C30.3708 16.7549 29.0529 18.1428 27.4771 19.1861C25.7368 20.3815 23.8401 21.3316 21.8406 22.0096L17.1606 18.7096L14.9071 17.1214C15.9327 14.4999 17.5415 12.1463 19.6118 10.239C20.1736 9.72861 20.7768 9.26583 21.4153 8.85547L23.7094 10.3061L31.3312 15.1272Z" fill="url(#paint0_linear_60_942)"/>
<defs>
<linearGradient id="paint0_linear_60_942" x1="25.9227" y1="26.9613" x2="33.0184" y2="12.2379" gradientUnits="userSpaceOnUse">
<stop offset="0.29" stop-color="#00214E"/>
<stop offset="0.51" stop-color="#6878B1"/>
<stop offset="0.79" stop-color="#00214E"/>
</linearGradient>
</defs>
</svg>
