<svg width="61" height="61" viewBox="0 0 61 61" fill="none" xmlns="http://www.w3.org/2000/svg">
<path d="M50.5259 47.784C38.7292 56.8671 22.2749 56.7945 10.5588 47.6075L19.1459 43.5822C19.5548 43.39 19.9473 43.1645 20.3194 42.9081C20.4324 42.8304 20.5453 42.7493 20.653 42.6646C21.5875 41.9495 22.3568 41.0412 22.9083 40.0016C23.3252 39.2029 23.6021 38.3386 23.7271 37.4463C23.8133 36.8673 23.8569 36.2828 23.8577 35.6975C23.8577 34.6881 23.803 33.6787 23.7924 32.6675C23.7853 32.1087 23.7794 31.5493 23.7747 30.9893L24.1277 31.1657L25.0453 31.6404L25.4706 31.7128L30.3871 32.5546L35.8788 33.4898L36.0447 39.1369L36.0994 40.9828L36.1259 41.8793V41.9375L38.2718 42.7898L50.5259 47.784Z" fill="#F2D4CF"/>
<path d="M50.5259 47.784C38.7292 56.8671 22.2749 56.7945 10.5588 47.6075L19.1459 43.5822C19.5548 43.39 19.9473 43.1645 20.3194 42.9081C20.4324 42.8304 20.5453 42.7493 20.653 42.6646C24.8088 45.6222 30.4806 47.4875 35.3865 45.2798C36.5547 44.7504 37.6277 43.8963 38.263 42.7987L50.5259 47.784Z" fill="url(#paint0_linear_60_877)"/>
<path d="M36.1241 41.8704C34.28 41.9815 32.2188 41.5051 30.3006 40.3986C26.6988 38.318 24.7736 34.6898 25.4653 31.7145L30.3853 32.5545L35.8771 33.4898L36.043 39.1368L36.1241 41.8704Z" fill="#DAAEA8"/>
<path d="M45.5071 14.3251C44.5883 17.3451 43.5594 20.3292 42.4206 23.2775C41.6212 25.351 41.2771 27.0328 39.1612 28.0139C37.603 28.7357 35.8665 28.9387 34.2518 29.491C33.3694 29.7945 23.8012 32.5122 23.8012 33.1051C23.8012 32.9763 22.8641 32.0463 21.6836 30.9151C19.5324 28.8692 18.0823 26.1962 17.54 23.2775C17.0936 20.8069 17.4694 17.7769 18.1912 15.391C21.6836 3.86748 38.4077 6.12101 47.233 8.13454C46.7094 10.2122 46.1341 12.2757 45.5071 14.3251Z" fill="url(#paint1_linear_60_877)"/>
<ellipse cx="22.0382" cy="26.0463" rx="3" ry="2.99999" fill="#F2D4CF"/>
<ellipse cx="22.9894" cy="26.0462" rx="2.68588" ry="2.68589" fill="#DAAEA8"/>
<path d="M23.03 23.214L23.4483 28.5398L23.7059 32.0251C23.8047 33.3063 24.3041 34.074 25.1389 35.0992C26.6221 36.9186 28.5115 38.3644 30.6553 39.3204C32.7006 40.2328 35.54 41.1416 37.7141 40.2557C39.9465 39.3504 40.6612 36.8445 41.42 34.7657C42.1789 32.6869 42.8689 30.4016 42.8318 28.1569C42.7841 25.111 41.9777 23.4028 41.9777 23.4028C42.1741 22.2263 42.3694 21.0534 42.5636 19.884C42.7841 18.5587 43.0683 17.1751 42.74 15.8428C42.3641 14.3145 41.2118 13.6634 40.2694 12.5216C37.7706 15.7404 33.6624 17.5598 30.0747 19.404C28.213 20.3604 23.03 23.214 23.03 23.214Z" fill="#F2D4CF"/>
<path d="M28.0594 22.0316C29.693 21.6938 31.3734 21.646 33.0235 21.8905" stroke="#00214E"/>
<path d="M39.1047 21.8639C40.1139 21.6291 41.154 21.5571 42.1859 21.6504" stroke="#00214E"/>
<path d="M29.6247 32.5986C30.2779 31.5249 31.2073 30.6461 32.3159 30.054" stroke="#00214E"/>
<path d="M32.99 24.6274C32.9186 25.2284 32.5836 25.7664 32.0759 26.0957C31.9728 26.1646 31.8635 26.2236 31.7494 26.2721C31.3855 26.405 31.0047 26.4864 30.6183 26.5139" stroke="#00214E"/>
<path d="M33.0182 18.998H38.5965" stroke="#00214E"/>
<path d="M32.3088 20.1504H37.8871" stroke="#00214E"/>
<path d="M38.57 24.5798C38.7395 25.0289 38.961 25.4565 39.23 25.854C39.4951 26.2203 39.8893 26.4725 40.333 26.5598" stroke="#00214E"/>
<path d="M37.9806 28.0828C38.0639 28.2141 38.1405 28.3496 38.21 28.4887C38.2902 28.62 38.3441 28.7657 38.3688 28.9175C38.3737 29.0275 38.3284 29.1337 38.2458 29.2064C38.1631 29.2791 38.052 29.3104 37.9436 29.2916C37.8324 29.2687 37.7865 29.4399 37.8977 29.4681C38.0402 29.4961 38.188 29.4662 38.3085 29.3851C38.429 29.304 38.5123 29.1783 38.54 29.0357C38.5515 28.8538 38.5085 28.6726 38.4165 28.5152C38.3328 28.3373 38.2386 28.1646 38.1341 27.9981C38.0741 27.9028 37.9206 27.9981 37.9806 28.0881V28.0828Z" fill="#00214E"/>
<path d="M35.0318 28.2892C34.8818 28.5292 34.7035 28.8292 34.79 29.1239C34.8588 29.3639 35.113 29.5863 35.3741 29.4928C35.48 29.4539 35.4341 29.2828 35.3265 29.3163C35.15 29.3833 34.9735 29.1963 34.9488 29.0269C34.9118 28.7939 35.0671 28.561 35.1835 28.3722C35.2453 28.2751 35.0918 28.1869 35.0318 28.2839V28.2892Z" fill="#00214E"/>
<path d="M32.2188 31.4957C33.0668 32.4426 34.2291 33.0501 35.4906 33.2057" stroke="#00214E"/>
<ellipse rx="0.577053" ry="1.40118" transform="matrix(0.0737612 -0.997276 0.997276 0.0737596 31.2701 24.3625)" fill="#00214E"/>
<ellipse rx="1.40117" ry="0.577059" transform="matrix(0.988067 -0.154022 0.154019 0.988068 40.3579 24.077)" fill="#00214E"/>
<defs>
<linearGradient id="paint0_linear_60_877" x1="10.5588" y1="54.5459" x2="50.5259" y2="54.5459" gradientUnits="userSpaceOnUse">
<stop stop-color="#16243F"/>
<stop offset="1" stop-color="#6878B1"/>
</linearGradient>
<linearGradient id="paint1_linear_60_877" x1="17.3424" y1="33.1076" x2="47.233" y2="33.1076" gradientUnits="userSpaceOnUse">
<stop stop-color="#315676"/>
<stop offset="1" stop-color="#E1B9E0"/>
</linearGradient>
</defs>
</svg>
