<svg width="61" height="61" viewBox="0 0 61 61" fill="none" xmlns="http://www.w3.org/2000/svg">
<path d="M18.5847 26.3678C16.6842 22.4449 16.9365 17.6784 19.0824 13.9054C22.19 8.43486 29.1412 5.84957 35.1853 6.17427C36.3747 6.2378 37.6718 6.46545 38.4483 7.36898C38.69 7.64957 38.8894 8.00074 39.2336 8.14192C39.4733 8.21558 39.7261 8.23664 39.9747 8.20368C41.0936 8.15251 42.2547 8.31663 43.2059 8.90957C44.1571 9.50251 44.8541 10.5737 44.7765 11.6907C44.7536 12.0137 44.6724 12.3578 44.81 12.6525C44.9247 12.8978 45.163 13.0513 45.3641 13.2402C45.8936 13.7537 46.07 14.5549 45.9853 15.2907C45.7224 17.7243 45.0165 20.2407 43.7283 22.3549C42.9335 23.6646 41.9392 24.8423 40.7812 25.8454C39.6377 26.8302 38.2171 27.2943 37.2289 28.4254C36.1965 29.606 36.3271 31.2084 35.3141 32.4843C34.2394 33.8413 32.6671 34.7166 31.003 35.1472C29.1394 35.629 25.483 35.8072 23.8171 34.6972C23.3124 34.3602 22.9524 33.8502 22.6118 33.3472C21.1041 31.1201 19.7583 28.7877 18.5847 26.3678Z" fill="#00214E"/>
<path d="M50.5259 48.1707C38.7292 57.2539 22.2749 57.1812 10.5588 47.9942L19.1459 43.9689C19.5548 43.7767 19.9473 43.5512 20.3194 43.2948C20.4324 43.2172 20.5453 43.136 20.653 43.0513C21.5875 42.3362 22.3568 41.4279 22.9083 40.3883C23.3252 39.5896 23.6021 38.7253 23.7271 37.833C23.8133 37.2541 23.8569 36.6696 23.8577 36.0842C23.8577 35.0748 23.803 34.0654 23.7924 33.0542C23.7853 32.4954 23.7794 31.936 23.7747 31.376L24.1277 31.5524L25.0453 32.0272L25.4706 32.0995L30.3906 32.936L35.8824 33.8713L36.0483 39.5183L36.103 41.3642L36.1294 42.2607V42.3189L38.2647 43.1872L50.5259 48.1707Z" fill="#845161"/>
<path d="M50.5259 48.1707C38.7292 57.2539 22.2749 57.1812 10.5588 47.9942L19.1459 43.9689C19.5548 43.7767 19.9473 43.5512 20.3194 43.2948C20.4324 43.2172 20.5453 43.136 20.653 43.0513C24.8088 46.0089 30.4806 47.8742 35.3865 45.6666C36.5547 45.1372 37.6277 44.283 38.263 43.1854L50.5259 48.1707Z" fill="#FF2609"/>
<path d="M36.1259 42.2572C34.2818 42.3684 32.2206 41.8919 30.3024 40.7854C26.7006 38.7049 24.7753 35.0766 25.4671 32.1013L30.3871 32.9378L35.8789 33.8731L36.0447 39.5201L36.1259 42.2572Z" fill="#69303A"/>
<ellipse cx="22.0382" cy="26.4331" rx="3" ry="3" fill="#845161"/>
<ellipse cx="22.9894" cy="26.4331" rx="2.68588" ry="2.68588" fill="#69303A"/>
<path d="M23.03 23.6008L23.4394 28.9267L23.7059 32.4084C23.8047 33.6896 24.3041 34.4573 25.1389 35.4826C26.6221 37.3019 28.5115 38.7477 30.6553 39.7037C32.7024 40.6161 35.54 41.5249 37.7247 40.639C39.9571 39.7355 40.67 37.2278 41.42 35.1508C42.17 33.0737 42.8688 30.7849 42.8318 28.5402C42.7841 25.4943 41.9777 23.7861 41.9777 23.7861C42.173 22.6096 42.3683 21.4367 42.5636 20.2673C42.7841 18.942 43.0683 17.5584 42.74 16.2261C42.3641 14.6978 41.21 14.0467 40.2606 12.9049C37.7618 16.1237 33.6536 17.9431 30.0659 19.7873C28.2183 20.7526 23.03 23.6008 23.03 23.6008Z" fill="#845161"/>
<path d="M36.5212 24.4584C36.5106 24.5007 37.4988 27.2607 38.0971 28.9266C38.1965 29.2102 38.1525 29.5243 37.979 29.7696C37.8055 30.0149 37.524 30.1611 37.2235 30.1619H36.583" stroke="#00214E"/>
<path d="M34.1106 29.0961C33.875 29.2357 33.7763 29.5262 33.8779 29.7805C33.9795 30.0349 34.2513 30.1772 34.5182 30.1161" stroke="#00214E"/>
<path d="M28.0594 22.4184C29.6931 22.0815 31.3733 22.0337 33.0235 22.2773" stroke="#00214E"/>
<path d="M39.1065 22.2507C40.1173 22.015 41.1593 21.9429 42.1929 22.0372" stroke="#00214E"/>
<path d="M29.6177 32.9854C30.2714 31.912 31.2015 31.0337 32.3106 30.4425" stroke="#00214E"/>
<path d="M32.78 25.1007C32.6903 25.8289 32.2196 26.4542 31.5447 26.7419C31.1805 26.8738 30.7999 26.9552 30.4135 26.9837" stroke="#00214E"/>
<path d="M33.02 19.3866H38.5965" stroke="#00214E"/>
<path d="M32.3088 20.5372H37.8871" stroke="#00214E"/>
<path d="M38.5718 24.6984C38.7405 25.1477 38.9621 25.5754 39.2318 25.9725C39.4958 26.3392 39.8895 26.5916 40.333 26.6784" stroke="#00214E"/>
<path d="M31.7459 32.3713C31.7947 32.2942 31.8734 32.2408 31.9631 32.2241C32.0529 32.2073 32.1455 32.2287 32.2188 32.2831C32.5859 32.5407 33.2565 33.0878 34.2094 33.2766C35.5082 33.536 36.6359 33.0154 36.9041 33.3507C37.0559 33.5396 36.8706 33.769 36.5159 34.0654C35.7663 34.6251 34.8232 34.8597 33.8988 34.7166C32.6494 34.4819 31.7106 33.0349 31.7106 32.5213C31.7089 32.4691 31.7211 32.4173 31.7459 32.3713Z" fill="white"/>
<path d="M31.2659 23.9378C32.3441 23.9272 32.3759 25.5719 31.2994 25.6019H31.2518C30.1753 25.6143 30.1436 23.9696 31.22 23.9396H31.2677L31.2659 23.9378Z" fill="#00214E"/>
<path d="M40.1318 23.6502C41.1323 23.6378 41.1606 25.1661 40.1618 25.1926H40.1176C39.1188 25.2032 39.0888 23.6767 40.0876 23.6484H40.1318V23.6502Z" fill="#00214E"/>
</svg>
