<svg width="61" height="61" viewBox="0 0 61 61" fill="none" xmlns="http://www.w3.org/2000/svg">
<path d="M50.5259 49.6176C38.7292 58.7008 22.2749 58.6281 10.5588 49.4411L19.1459 45.4158C19.5548 45.2236 19.9473 44.9981 20.3194 44.7417C20.4324 44.6641 20.5453 44.5829 20.6529 44.4982C21.5875 43.7831 22.3568 42.8748 22.9082 41.8352C23.3251 41.0365 23.6021 40.1722 23.7271 39.2799C23.8132 38.701 23.8569 38.1165 23.8577 37.5311C23.8577 36.5217 23.8029 35.5123 23.7924 34.5011C23.7853 33.9423 23.7794 33.3829 23.7747 32.8229L24.1277 32.9993L25.0453 33.4741L25.4706 33.5464L30.3906 34.3829L35.8824 35.3182L36.0482 40.9652L36.1029 42.8111L36.1294 43.7076V43.7623L38.2647 44.6305L50.5259 49.6176Z" fill="#F2A196"/>
<path d="M36.1082 43.3441C35.5017 43.4485 34.8777 43.3518 34.3312 43.0688L23.8065 34.4606C23.7941 34.0618 23.7835 34.48 23.7782 34.0812C23.7712 33.5224 23.7653 32.963 23.7606 32.403L24.1135 32.5794L25.0312 33.0541L25.4565 33.1265L30.3765 33.963L35.8682 34.8982L36.0341 40.5453L36.0888 42.3912L36.1153 43.2877V43.3459L36.1082 43.3441Z" fill="#E88870"/>
<path d="M50.5259 49.6177C38.7292 58.7009 22.2749 58.6282 10.5588 49.4412L19.1459 45.4159C19.5548 45.2237 19.9473 44.9982 20.3194 44.7418C20.4324 44.6642 20.5453 44.583 20.6529 44.4983C24.8088 47.4559 30.4806 49.3212 35.3865 47.1136C36.5547 46.5842 37.6277 45.7301 38.263 44.6324L50.5259 49.6177Z" fill="#FF2609"/>
<path d="M47.3671 14.2741C47.3512 14.3782 47.3318 14.4806 47.3088 14.5829C47.1864 15.1076 46.9897 15.6121 46.7247 16.0812L46.7106 16.1059C46.61 16.2823 46.5024 16.4588 46.3859 16.6353C46.0769 17.0883 45.7397 17.5215 45.3765 17.9324L45.1594 18.1741C45.0129 18.3382 44.8647 18.4988 44.7165 18.6576C44.8283 18.6337 44.9432 18.6271 45.0571 18.6382C45.0994 18.6417 45.1413 18.6488 45.1824 18.6594C45.7453 18.7759 46.2271 19.3 46.3771 19.8947C46.3859 19.9335 46.3947 19.9741 46.4018 20.0129C46.5412 20.8035 46.2253 21.6012 45.8353 22.3071C45.1524 23.5565 44.1677 24.3876 43.3012 25.4729C42.6518 26.2812 42.2918 27.2376 41.5841 28.0106L41.5312 28.0688L41.4888 28.1112C39.6182 30.0382 36.6941 30.4953 34.2535 31.3282C33.3712 31.6318 23.8029 34.3494 23.8029 34.9424C23.8029 34.8135 22.8659 33.8835 21.6853 32.7524C17.45 28.7306 16.0576 22.5171 18.5776 17.1876C21.2865 11.4523 27.4382 7.35999 33.2971 5.39411C35.1288 4.77999 37.2077 4.36705 38.9441 5.21764C40.6806 6.06823 41.5453 8.70646 40.1053 9.9947C41.011 9.30945 42.1375 8.98211 43.2694 9.07529C44.3149 9.14079 45.3008 9.58422 46.0435 10.3229C46.4585 10.7389 46.7924 11.2284 47.0282 11.7665C47.1253 11.9898 47.2061 12.2198 47.27 12.4547C47.4289 13.0478 47.462 13.6675 47.3671 14.2741Z" fill="#F2D4CF"/>
<path d="M47.3671 14.2741C47.3512 14.3782 47.3318 14.4806 47.3088 14.5829C47.1864 15.1076 46.9897 15.6121 46.7247 16.0812L46.7106 16.1059C46.61 16.2823 46.5023 16.4588 46.3859 16.6353C46.0769 17.0883 45.7397 17.5215 45.3765 17.9323L45.1594 18.1741C45.0129 18.3382 44.8647 18.4988 44.7165 18.6576C44.8283 18.6337 44.9432 18.6271 45.0571 18.6382C45.0993 18.6417 45.1413 18.6488 45.1824 18.6594C45.7453 18.7759 46.2271 19.3 46.3771 19.8947C46.3859 19.9335 46.3947 19.9741 46.4018 20.0129C46.5412 20.8035 46.2253 21.6012 45.8353 22.307C45.1524 23.5565 44.1676 24.3876 43.3012 25.4729C42.6518 26.2812 42.2918 27.2376 41.5841 28.0106L41.5312 28.0688L41.4888 28.1112C40.7793 27.1564 40.3271 26.0352 40.1759 24.8553C39.8741 22.4129 40.0576 19.7518 39.9747 17.2794C39.9465 16.4165 39.8953 15.3876 40.1724 14.5688C40.2481 14.3661 40.3495 14.174 40.4741 13.997C40.7989 13.4732 41.1691 12.9789 41.5806 12.52C42.0472 12.0232 42.6363 11.6581 43.2888 11.4612C43.6411 11.3611 44.0022 11.2949 44.3671 11.2635C44.7572 11.2253 45.1505 11.233 45.5388 11.2865C46.0569 11.3604 46.5576 11.5259 47.0176 11.7753C47.1147 11.9986 47.1955 12.2286 47.2594 12.4635C47.4206 13.053 47.4573 13.6696 47.3671 14.2741Z" fill="#DAAEA8"/>
<ellipse cx="22.0382" cy="27.88" rx="3" ry="3.00001" fill="#F2A196"/>
<ellipse cx="22.9912" cy="27.88" rx="2.68588" ry="2.68588" fill="#E88870"/>
<path d="M23.03 25.0565L23.8065 35.1153L35.5312 41.9659C37.2116 42.5936 39.094 41.8439 39.8829 40.233C41.57 36.7777 44.2771 31.323 43.9206 29.2918C43.3912 26.2918 41.9794 25.233 41.9794 25.233L42.5671 21.7142C42.7876 20.3889 43.0718 19.0053 42.7435 17.673C42.3676 16.1465 41.2135 15.4936 40.2641 14.3518C37.7653 17.5706 33.6571 19.39 30.0694 21.2342C28.2182 22.1942 23.03 25.0565 23.03 25.0565Z" fill="#F2A196"/>
<path d="M36.1824 24.1918C36.1682 24.2518 38.54 30.5659 38.54 30.5659L35.3741 30.7212" stroke="#00214E"/>
<path d="M28.6859 22.9688C30.3196 22.6314 31.9999 22.5843 33.65 22.8294" stroke="#00214E"/>
<path d="M39.1065 22.9883C40.1153 22.7552 41.1546 22.6831 42.1859 22.7747" stroke="#00214E"/>
<path d="M32.1306 32.4858C32.1794 32.4087 32.2581 32.3553 32.3478 32.3386C32.4376 32.3218 32.5302 32.3432 32.6035 32.3976C32.9706 32.6552 33.6412 33.2023 34.5941 33.3911C35.8929 33.6505 37.0188 33.1299 37.2888 33.4652C37.4406 33.6541 37.2553 33.8852 36.9006 34.1711C36.1501 34.7331 35.2044 34.9679 34.2782 34.8223C33.0288 34.5876 32.09 33.1405 32.09 32.627C32.0915 32.5773 32.1054 32.5287 32.1306 32.4858V32.4858Z" fill="white"/>
<path d="M31.6647 24.9929C32.7412 25.0017 32.7412 26.6464 31.6647 26.6553H31.6153C30.5388 26.6464 30.5388 25.0017 31.6153 24.9929H31.6647Z" fill="#00214E"/>
<path d="M40.5341 24.88C41.5329 24.88 41.5329 26.4153 40.5341 26.4224H40.49C39.4894 26.4224 39.4894 24.8871 40.49 24.88H40.5341Z" fill="#00214E"/>
</svg>
