<svg width="61" height="61" viewBox="0 0 61 61" fill="none" xmlns="http://www.w3.org/2000/svg">
<path fill-rule="evenodd" clip-rule="evenodd" d="M43.7422 21.8742C43.7289 22.9485 43.7162 23.9786 43.7582 24.9095C43.9982 30.2248 44.0977 35.5413 44.0565 40.8589C40.7872 41.6292 36.8362 41.6261 33.3047 41.6233C32.7664 41.6229 32.2379 41.6225 31.7229 41.6248C24.1241 41.6619 16.9435 40.1989 9.85294 37.626C11.01 31.3886 12.6563 25.252 14.7765 19.273C15.0482 18.5072 15.35 17.7219 15.6906 16.9366C17.2259 13.3736 19.4971 9.80188 22.9259 7.96658C23.3317 7.74868 23.7515 7.55768 24.1824 7.39482C30.2176 5.10952 38.3035 6.40482 42.11 12.0095C43.8325 14.5455 43.7845 18.4358 43.7422 21.8742ZM26.96 20.2083L27.8018 20.4536L38.0423 15.7101C37.0066 15.1898 35.4372 14.3681 33.5688 13.39C33.3903 13.2965 33.2091 13.2016 33.0253 13.1054C32.1326 15.7296 30.3948 17.9837 28.0841 19.5148C27.722 19.7658 27.3468 19.9974 26.96 20.2083Z" fill="#845161"/>
<path d="M51.133 47.9018C39.3362 56.985 22.8819 56.9123 11.1659 47.7253L19.753 43.6983C20.0158 43.574 20.272 43.4362 20.5206 43.2853L20.7182 43.1618C20.7888 43.1177 20.8577 43.0718 20.9265 43.0242C22.0098 42.2768 22.8977 41.28 23.5153 40.1177C24.2212 38.7853 24.4541 37.3136 24.4647 35.8136C24.4647 34.8042 24.41 33.7948 24.3994 32.7836C24.3924 32.2236 24.3865 31.6642 24.3818 31.1053L24.7347 31.2818L25.6524 31.7565L30.9924 32.6689L36.4841 33.6042L36.65 39.2512L36.733 42.0518L38.7571 42.8706L40.3453 43.513L51.133 47.9018Z" fill="#F2D4CF"/>
<path d="M36.6518 39.246C34.8764 39.5612 33.0501 39.4185 31.3453 38.8313C27.5371 37.5519 24.9729 34.4654 24.7312 31.2854L25.6488 31.7601L30.9923 32.6689L36.4841 33.6042L36.6518 39.246Z" fill="#DAAEA8"/>
<ellipse cx="19.2641" cy="25.4584" rx="3" ry="3" fill="#F2D4CF"/>
<ellipse cx="20.3229" cy="25.1053" rx="3" ry="3" fill="#DAAEA8"/>
<path d="M40.9541 20.7307C43.1529 28.3454 38.8735 37.1866 35.6141 37.5501C27.7382 38.4324 22.1424 34.4107 19.9435 26.796C17.7447 19.1813 20.6671 11.653 26.4729 9.97832C32.2788 8.30362 38.7571 13.1177 40.9541 20.7307Z" fill="#F2D4CF"/>
<path d="M33.9288 8.8913C33.8471 9.72533 33.7134 10.5534 33.5282 11.3707C33.3937 11.958 33.2257 12.5372 33.0253 13.1054C32.1325 15.7297 30.3948 17.9838 28.0841 19.5148C27.722 19.7659 27.3468 19.9974 26.96 20.2084C23.9688 21.8548 20.6353 22.1813 17.2964 22.8413C17.3688 21.1013 17.4147 19.2695 17.9406 17.5913C18.113 17.0339 18.3474 16.4976 18.6394 15.9925C19.9933 13.7019 21.9709 11.8437 24.3412 10.6348C25.0166 10.287 25.7105 9.97658 26.42 9.70483C28.8147 8.7766 31.6982 8.17836 33.9288 8.8913Z" fill="#845161"/>
<path d="M35.8576 19.8007C37.105 19.1656 38.5475 19.0293 39.8918 19.4195" stroke="#00214E"/>
<path d="M51.133 47.9019C39.3362 56.9851 22.8819 56.9124 11.1659 47.7254L19.753 43.6984C20.1619 43.5061 20.5544 43.2807 20.9265 43.0243C21.0394 42.9466 21.1524 42.8654 21.26 42.7807C22.1946 42.0657 22.9639 41.1573 23.5153 40.1178C23.9322 39.3191 24.2092 38.4548 24.3341 37.5625C24.4588 37.6833 24.5895 37.7975 24.7259 37.9049C25.8079 38.705 26.9822 39.3721 28.2235 39.8919C28.8262 40.1433 29.4424 40.3607 30.0694 40.5431C31.9584 41.0939 33.9306 41.3025 35.893 41.159C36.1647 41.1378 36.4382 41.1113 36.71 41.0919L36.7365 41.9884V42.0466L38.8718 42.9149L51.133 47.9019Z" fill="#E18477"/>
<path d="M28.7512 25.1019C29.2447 25.1337 29.73 24.9638 30.0959 24.6311C30.4619 24.2984 30.6771 23.8315 30.6924 23.3372" stroke="#00214E"/>
<path d="M36.2865 22.9843C36.2966 23.4485 36.5094 23.885 36.8688 24.179C37.2243 24.4708 37.621 24.7087 38.0459 24.8848" stroke="#00214E"/>
<path d="M27.2971 30.4419C27.5172 30.073 27.7887 29.7372 28.1035 29.4449C28.7516 28.8511 29.5644 28.4678 30.4347 28.3455" stroke="#00214E"/>
<path d="M31.8359 16.416H36.0129" stroke="#00214E"/>
<path d="M30.8159 17.796H36.0129" stroke="#00214E"/>
<path d="M35.8047 26.8683C35.8876 26.9989 35.9635 27.1348 36.0341 27.2742C36.113 27.406 36.1662 27.5515 36.1912 27.703C36.1959 27.8126 36.1509 27.9185 36.0686 27.9911C35.9864 28.0637 35.8758 28.0954 35.7676 28.0772C35.6565 28.0542 35.6088 28.2236 35.72 28.2536C35.8625 28.2816 36.0103 28.2517 36.1308 28.1706C36.2513 28.0895 36.3346 27.9638 36.3623 27.8213C36.3738 27.6393 36.3308 27.4581 36.2388 27.3007C36.1559 27.1225 36.0616 26.9498 35.9565 26.7836C35.8965 26.6883 35.7429 26.7836 35.8047 26.8736V26.8683Z" fill="#00214E"/>
<path d="M32.8541 27.073C32.7041 27.3148 32.5277 27.613 32.6124 27.9095C32.683 28.1495 32.9371 28.3718 33.1965 28.2765C33.3024 28.2395 33.2582 28.0683 33.1506 28.1001C32.9741 28.1671 32.7977 27.9801 32.773 27.8107C32.7341 27.576 32.8894 27.343 33.0077 27.156C33.0677 27.0589 32.9159 26.9707 32.8541 27.066V27.073Z" fill="#00214E"/>
<path d="M29.2506 30.223C29.2994 30.1459 29.3781 30.0925 29.4678 30.0758C29.5575 30.059 29.6502 30.0804 29.7235 30.1348C30.0906 30.3924 30.7612 30.9395 31.7141 31.1283C33.0129 31.3877 34.1388 30.8689 34.4088 31.2024C34.5606 31.3912 34.3753 31.6224 34.0206 31.9171C33.2701 32.4791 32.3244 32.7139 31.3982 32.5683C30.1488 32.3336 29.21 30.8865 29.21 30.3748C29.21 30.3215 29.224 30.2692 29.2506 30.223Z" fill="white"/>
<path d="M33.0253 13.1054C32.1325 15.7296 30.3948 17.9837 28.0841 19.5148C27.722 19.7658 27.3468 19.9973 26.96 20.2083L18.6394 17.7924L17.9335 17.5913L15.6853 16.9366C17.2206 13.3736 19.4917 9.80185 22.9206 7.96655L24.0482 8.52244C24.8335 8.90891 25.6241 9.30244 26.4094 9.69949C28.7476 10.8748 31.0365 12.066 33.0253 13.1054Z" fill="url(#paint0_linear_60_876)"/>
<path d="M26.1341 20.4536C27.8528 19.5779 29.8723 19.5132 31.6435 20.2771" stroke="#00214E"/>
<ellipse cx="28.6261" cy="22.6034" rx="0.578467" ry="1.4046" transform="rotate(-85.9958 28.6261 22.6034)" fill="#00214E"/>
<ellipse rx="1.40118" ry="0.577059" transform="matrix(0.988068 -0.15402 0.154021 0.988068 38.5468 22.6077)" fill="#00214E"/>
<defs>
<linearGradient id="paint0_linear_60_876" x1="31.6141" y1="24.9955" x2="34.8657" y2="9.51747" gradientUnits="userSpaceOnUse">
<stop offset="0.29" stop-color="#845161"/>
<stop offset="0.52" stop-color="#AD8390"/>
<stop offset="0.8" stop-color="#845161"/>
</linearGradient>
</defs>
</svg>
