<?xml version="1.0" ?>
<svg style="enable-background:new 0 0 48 48;" version="1.1" viewBox="0 0 48 48" xml:space="preserve" xmlns="http://www.w3.org/2000/svg" xmlns:xlink="http://www.w3.org/1999/xlink">
    <g id="Layer_2"/>
    <g id="Layer_1"><g>
        <path d="M37.44898,24.03519c0,7.70996-6.03998,13.98999-13.45996,13.98999    c-6.31,0-11.62-4.54004-13.07001-10.64001c-0.25-1.07001-0.39001-2.20001-0.39001-3.34998c0-0.70001,0.07001-1.42999,0.19-2.25    l0.01001-0.16003c1.19-6.75,6.75-11.58997,13.26001-11.58997c3.89996,0,7.45001,1.72998,9.92999,4.53998    c1.69,1.92999,2.87,4.35999,3.32001,7.09998l0.01001,0.08002l0.01001,0.01001v0.06    C37.38898,22.63517,37.44898,23.3552,37.44898,24.03519z" style="fill:#B9D4F8;"/>
<!--        <path d="M18.17963,26.94057c0,0-0.22361,0.94487,2.06125,0.30923s3.95126-0.97923,5.6692-0.54974    c1.71794,0.42949,2.86896,1.11666,3.4187-0.30923c0.54974-1.42589,1.59502-4.68042,2.48109-4.57353l0.21608,0.38176    c0,0-0.24066,0.00761-0.54123,0.97444s-1.1076,3.09707-1.48574,3.85297s-0.5843,1.51179-2.04455,1.0823    c-1.46025-0.42949-3.06207-1.21974-4.82089-0.75589C21.37472,27.81672,18.57504,28.98492,18.17963,26.94057z" style="fill:#659BDB;"/>-->
<!--        <path d="M15.46133,21.92084c0,0-0.82715-1.53898,0.88553-1.57718c0,0-1.66402-0.57341-1.71268,0.51648    S15.46133,21.92084,15.46133,21.92084z" style="fill:#FFFFFF;"/>-->
<!--        <path d="M19.52768,20.16559c0,0-0.82715-1.53898,0.88553-1.57718c0,0-1.66402-0.57341-1.71268,0.51648    S19.52768,20.16559,19.52768,20.16559z" style="fill:#FFFFFF;"/>-->
<!--        <path d="M23.96264,18.26802c0,0-0.82715-1.53898,0.88553-1.57718c0,0-1.66402-0.57341-1.71268,0.51648    C23.08683,18.29721,23.96264,18.26802,23.96264,18.26802z" style="fill:#FFFFFF;"/>-->
<!--        <path d="M28.3309,20.16559c0,0-0.82715-1.53898,0.88553-1.57718c0,0-1.66402-0.57341-1.71268,0.51648    S28.3309,20.16559,28.3309,20.16559z" style="fill:#FFFFFF;"/>-->
<!--        <path d="M32.31382,21.99505c0,0-0.82715-1.53898,0.88553-1.57718c0,0-1.66402-0.57341-1.71268,0.51648    S32.31382,21.99505,32.31382,21.99505z" style="fill:#FFFFFF;"/>-->
        <path d="M33.91901,14.57517c-4.29999-3.34003-10.66524-5.41056-16.15523-1.81053    C8.11382,19.0946,12.529,29.36515,12.529,29.36515s-0.72998-0.64996-1.60999-1.97998    c-0.25-1.07001-0.39001-2.20001-0.39001-3.34998c0-0.70001,0.07001-1.42999,0.19-2.25l0.01001-0.16003    c1.19-6.75,6.75-11.58997,13.26001-11.58997C27.88898,10.03519,31.43903,11.76517,33.91901,14.57517z" style="fill:#FFFFFF;"/>
        <path d="M13.43494,25.06244c0.02409,0.11303-1.47349-7.95047,6.67655-11.36403    c9.12889-3.82354,14.4425,6.34008,14.4425,6.34008s-2.95477-10.38662-13.96295-7.79075    C20.59103,12.24774,11.40759,15.54779,13.43494,25.06244z" style="fill:#FFFFFF;"/>
        <path d="M10.86439,26.59688c-0.00521-0.18803,3.26015,9.34962,12.11675,9.6879    s12.51082-6.08892,13.7743-9.41014c0,0,0.61768,1.26084-0.82766,3.62875c-1.44535,2.36791-4.80427,7.5218-11.93876,7.5218    S11.01772,32.13127,10.86439,26.59688z" style="fill:#659BDB;"/>
        <path d="M13.86456,26.6145c0,0,5.16559,7.53581,12.16949,5.82594    c7.0039-1.70987,9.40425-7.89206,8.17691-13.54869c0,0,3.74442,8.71232-4.77854,13.63093S14.09843,29.53918,13.86456,26.6145z" style="fill:#659BDB;"/>
    </g><g>
        <path d="M37.55395,21.59476c-0.06466-0.3818-0.14447-0.7606-0.23911-1.13439    c-0.21468-0.84793-0.49327-1.67625-0.85091-2.47495c-0.35072-0.78326-0.77097-1.53535-1.25481-2.24416    c-0.47793-0.70014-1.01783-1.35799-1.61229-1.96237c-0.59051-0.60037-1.2348-1.1479-1.92376-1.63221    c-0.68896-0.4843-1.42249-0.90522-2.18921-1.25367c-0.77403-0.35177-1.58162-0.62944-2.40865-0.82676    c-0.84637-0.20193-1.71257-0.31945-2.58208-0.35147c-0.16427-0.00605-0.32865-0.00906-0.49302-0.00906    c-0.90183,0-1.80348,0.09132-2.68666,0.27397c-0.86448,0.17878-1.71063,0.44482-2.52234,0.79178    c-0.80263,0.34308-1.57125,0.76498-2.29294,1.25587c-0.72119,0.49054-1.39539,1.04977-2.01234,1.66624    c-0.62102,0.62053-1.18396,1.29894-1.68052,2.02288c-0.50288,0.73315-0.93757,1.5129-1.2975,2.3258    c-0.37089,0.83766-0.66655,1.71322-0.87253,2.606c-0.25379,1.09492-0.39298,2.22745-0.39298,3.3519    c0,7.88184,6.17188,14.29394,13.75781,14.29394s13.75732-6.41211,13.75732-14.29394    C37.75743,23.19747,37.68856,22.38962,37.55395,21.59476z M24.00011,37.7941c-6.09393,0-11.22699-4.30554-12.77118-10.14221    c1.92157,5.19903,6.91364,8.92248,12.77216,8.92248c5.85083,0,10.83746-3.71375,12.76459-8.90198    C35.21489,33.49869,30.08654,37.7941,24.00011,37.7941z M24.00109,36.07437c-7.23779,0-13.12646-5.88867-13.12646-13.12646    c0-1.1408,0.22034-2.24827,0.56963-3.3306c0.27697-0.85821,0.63645-1.68971,1.07263-2.47901    c0.42883-0.776,0.93167-1.51108,1.50048-2.19122c0.56303-0.67323,1.19062-1.29252,1.87271-1.84485    c0.67995-0.5506,1.41397-1.03447,2.18934-1.43993c0.78057-0.40817,1.60276-0.73656,2.45036-0.97644    c0.86591-0.24506,1.75767-0.3974,2.65577-0.45438c0.27116-0.0172,0.54286-0.02577,0.81456-0.02577    c6.5849,0,12.04828,5.02637,13.07056,11.58252c0.03467,0.38562,0.05688,0.7663,0.05688,1.15967    C37.12755,30.1857,31.23888,36.07437,24.00109,36.07437z" style="fill:#1B4A9A;"/>
<!--        <path d="M31.23595,21.04703c0,0.0661,0.02771,0.12311,0.03772,0.18646    c-0.20624,0.14282-0.48602,0.32916-0.56458,0.36578c-0.10596,0.04541-0.69043,0.06006-1.29199-0.1167    c-0.62646-0.18378-0.67255-0.65417-0.63361-1.03699c0.53662-0.13507,0.94318-0.59937,0.94318-1.17737    c0-0.68213-0.55469-1.23682-1.23682-1.23682s-1.23682,0.55469-1.23682,1.23682c0,0.37415,0.1756,0.69861,0.43884,0.9256    c-0.04974,0.1283-0.41956,0.94672-1.6283,0.612c-0.67889-0.18689-1.13531-0.33203-1.52637-2.23541    c0.45941-0.18066,0.7876-0.62305,0.7876-1.14594c0-0.68213-0.55469-1.23682-1.23682-1.23682s-1.23682,0.55469-1.23682,1.23682    c0,0.52307,0.32843,0.96545,0.78809,1.146c-0.39099,1.90326-0.84747,2.04852-1.52637,2.23535    c-1.20734,0.33307-1.57819-0.48297-1.62842-0.61188c0.26331-0.22699,0.43896-0.55151,0.43896-0.92572    c0-0.68213-0.55469-1.23682-1.23682-1.23682s-1.23682,0.55469-1.23682,1.23682c0,0.57825,0.40686,1.04272,0.94385,1.17749    c0.04071,0.3678,0.00293,0.84985-0.63428,1.03687c-0.60352,0.17676-1.18799,0.16162-1.2915,0.11719    c-0.07898-0.03705-0.35889-0.22345-0.56506-0.36627c0.01001-0.06329,0.03772-0.12036,0.03772-0.18646    c0-0.68213-0.55469-1.23682-1.23682-1.23682s-1.23682,0.55469-1.23682,1.23682s0.55469,1.23682,1.23682,1.23682    c0.08527,0,0.1601-0.03223,0.24054-0.04871c0.30664,0.20648,0.46667,0.7002,0.57294,1.0282l0.04004,0.12305    c0.22754,0.67432,0.97559,2.53027,1.07861,2.78564c0.00244,0.0083,0.00488,0.01611,0.00781,0.02393    c0.14941,0.41357,0.67676,1.78174,1.1792,2.04199c0.27637,0.14307,0.5498,0.2002,0.83154,0.2002    c0.48486,0,0.99268-0.16992,1.57861-0.3667c0.74121-0.24817,1.66394-0.55518,2.8559-0.60455    c1.17706,0.04858,2.08649,0.33112,2.88776,0.58209c0.61719,0.19336,1.15283,0.36084,1.6543,0.36084    c0.29492,0,0.57812-0.05811,0.85938-0.20312c0.50977-0.26465,0.93115-1.61816,1.04785-2.02686    c0.00098-0.00244,0.00146-0.00488,0.00195-0.00781c0.10303-0.25391,0.85156-2.11084,1.0791-2.78564l0.04102-0.12549    c0.10626-0.32751,0.26624-0.82025,0.57196-1.02576c0.08044,0.01648,0.15527,0.04871,0.24054,0.04871    c0.68213,0,1.23682-0.55469,1.23682-1.23682s-0.55469-1.23682-1.23682-1.23682S31.23595,20.3649,31.23595,21.04703z     M28.48986,18.5314c0.40625,0,0.73682,0.33057,0.73682,0.73682s-0.33057,0.73682-0.73682,0.73682    s-0.73682-0.33057-0.73682-0.73682S28.08361,18.5314,28.48986,18.5314z M23.35118,17.42447    c0-0.40625,0.33057-0.73682,0.73682-0.73682s0.73682,0.33057,0.73682,0.73682s-0.33057,0.73682-0.73682,0.73682    S23.35118,17.83072,23.35118,17.42447z M18.94982,19.26822c0-0.40625,0.33057-0.73682,0.73682-0.73682    s0.73682,0.33057,0.73682,0.73682s-0.33057,0.73682-0.73682,0.73682S18.94982,19.67447,18.94982,19.26822z M15.70372,21.78385    c-0.40625,0-0.73682-0.33057-0.73682-0.73682s0.33057-0.73682,0.73682-0.73682s0.73682,0.33057,0.73682,0.73682    S16.10997,21.78385,15.70372,21.78385z M29.26036,27.76236c-0.57617,0.29736-1.22998,0.09277-2.13428-0.19043    c-0.79022-0.24762-1.77289-0.55298-3.01703-0.60486c-0.00281-0.00037-0.00458-0.00275-0.00739-0.00305    c-0.0047,0.00018-0.00854,0.00104-0.01324,0.00122c-0.00476-0.00018-0.00885-0.00104-0.01361-0.00122    c-0.00293,0.00024-0.00482,0.00287-0.00769,0.00317c-1.26208,0.0531-2.22192,0.37189-2.9928,0.63062    c-0.84619,0.28418-1.45801,0.48877-2.02197,0.1958c-0.20697-0.1073-0.58826-0.85986-0.86249-1.5675    c0.12781,0.02271,0.27161,0.04163,0.44354,0.04163c0.38135,0,0.85449-0.08398,1.34326-0.37744    c0.52393,0.10107,2.81982,0.41797,4.07227-1.4082l0.03693-0.05389l0.0368,0.05389c1.24707,1.82568,3.54883,1.50879,4.07324,1.4082    c0.47168,0.28223,0.9292,0.36523,1.30518,0.36523c0.1994,0,0.36523-0.02539,0.50812-0.05487    C29.79271,26.90219,29.4594,27.65946,29.26036,27.76236z M30.21947,25.62943c-0.00592,0.0022-0.0119-0.00208-0.0177,0.00061    c-0.00879,0.00488-0.89453,0.38916-1.82227-0.21436c-0.05762-0.0376-0.12891-0.04883-0.19385-0.03369    c-0.02441,0.00537-2.46191,0.55762-3.65039-1.18213l-0.24316-0.35498c-0.00946-0.01398-0.02753-0.0141-0.03912-0.02545    c-0.01147-0.01172-0.01172-0.02991-0.02582-0.03949c-0.01562-0.01068-0.03467-0.00415-0.05157-0.01086    c-0.0307-0.01263-0.05615-0.01892-0.08936-0.01886c-0.03308-0.00006-0.05847,0.00623-0.08917,0.0188    c-0.01715,0.00671-0.03632,0.00018-0.05212,0.01093c-0.01416,0.00958-0.0144,0.02783-0.02588,0.03961    c-0.0116,0.01129-0.02954,0.01147-0.03906,0.02533l-0.24316,0.35449c-1.19434,1.73975-3.62354,1.18799-3.6499,1.18262    c-0.06641-0.01514-0.13574-0.00391-0.19385,0.03369c-0.92285,0.60156-1.78516,0.25586-1.82178,0.24121    c-0.0011-0.00049-0.00226,0.00043-0.00336,0c-0.09607-0.23956-0.23016-0.57642-0.36914-0.92957l0.5224-1.29797    c0.36133,0.1001,1.06543,0.18896,1.85547-0.2876c0.52441,0.10107,2.81982,0.4165,4.07227-1.4082l0.03693-0.05389l0.0368,0.05389    c1.24707,1.82617,3.54736,1.50977,4.07324,1.4082c0.78857,0.47461,1.48877,0.38818,1.84814,0.28809l0.49707,1.25293    c0.00757,0.0191,0.02502,0.02899,0.03638,0.04498C30.44329,25.06906,30.31469,25.39176,30.21947,25.62943z M31.18468,23.10709    l-0.03906,0.11914c-0.0661,0.19586-0.18134,0.50342-0.31085,0.84039l-0.41473-1.04547    c-0.02588-0.06494-0.07812-0.1167-0.14355-0.1416c-0.06592-0.02539-0.13867-0.02148-0.20117,0.01074    c-0.00781,0.00391-0.77344,0.37598-1.6958-0.22314c-0.05762-0.03809-0.12891-0.0498-0.19385-0.03369    c-0.02441,0.00439-2.46191,0.55762-3.65039-1.18213l-0.24316-0.35498c-0.00946-0.01385-0.02753-0.01416-0.03912-0.02545    c-0.01147-0.01172-0.01172-0.02991-0.02582-0.03949c-0.01562-0.0108-0.03467-0.00415-0.05157-0.01086    c-0.0307-0.01276-0.05615-0.01892-0.08936-0.01886c-0.03308-0.00006-0.05847,0.0061-0.08917,0.0188    c-0.01715,0.00677-0.03632,0.00006-0.05212,0.01093c-0.01416,0.00958-0.0144,0.02783-0.02588,0.03961    c-0.0116,0.01123-0.02954,0.0116-0.03906,0.02533l-0.24316,0.35449c-1.19434,1.74023-3.62354,1.18994-3.6499,1.18262    c-0.06641-0.01611-0.13574-0.00439-0.19385,0.03369c-0.91211,0.59277-1.67236,0.23828-1.70264,0.22266    c-0.06201-0.03125-0.13477-0.03418-0.2002-0.01025c-0.06543,0.0249-0.11768,0.07568-0.14355,0.14062l-0.41284,1.02625    c-0.12628-0.32892-0.23816-0.62787-0.30298-0.8197l-0.03809-0.1167c-0.104-0.32275-0.25989-0.77173-0.55676-1.09302    c0.11255-0.08514,0.20428-0.18567,0.28223-0.30377c0.17389,0.11853,0.42804,0.28802,0.53918,0.33966    c0.11035,0.05127,0.29395,0.07568,0.51318,0.07568c0.3374,0,0.75928-0.05762,1.12939-0.1665    c0.41022-0.12,1.05676-0.47852,0.98932-1.49805c0.05255-0.00903,0.10535-0.01599,0.15546-0.03149    c0.17694,0.40027,0.66211,0.95142,1.53687,0.95142c0.20068,0,0.42188-0.0293,0.66406-0.0957    c0.93164-0.25708,1.44263-0.61566,1.84253-2.42993c0.3999,1.81427,0.91089,2.17285,1.84253,2.42993    c0.24219,0.06641,0.46338,0.0957,0.66406,0.0957c0.87476,0,1.35992-0.55115,1.53687-0.95142    c0.04974,0.01538,0.10211,0.02222,0.15424,0.03125c-0.0722,1.01697,0.57898,1.37762,0.99054,1.49829    c0.37012,0.10889,0.79199,0.16699,1.12939,0.16699c0.21973,0,0.40332-0.0249,0.51367-0.07617    c0.11084-0.05164,0.36487-0.22113,0.5387-0.33966c0.07794,0.11804,0.16968,0.21857,0.28223,0.30377    C31.44432,22.33756,31.28862,22.78525,31.18468,23.10709z M32.47277,20.31021c0.40625,0,0.73682,0.33057,0.73682,0.73682    s-0.33057,0.73682-0.73682,0.73682s-0.73682-0.33057-0.73682-0.73682S32.06652,20.31021,32.47277,20.31021z" style="fill:#1B4A9A;"/>-->
        <path d="M24.00011,11.6901c-6.20801,0-11.25879,5.05078-11.25879,11.25879    c0,6.2085,5.05078,11.25928,11.25879,11.25928S35.2589,29.15738,35.2589,22.94888    C35.2589,16.74088,30.20812,11.6901,24.00011,11.6901z M24.00011,33.70816c-2.86719,0-5.46936-1.1344-7.39978-2.96911h0.00201    h0.00531h0.00531h0.00531h0.00531h0.00525h0.00531h0.00531h0.00531h0.00531h0.00531h0.00531H16.666h0.00531h0.00525h0.00531    h0.00531h0.00531h0.00531h0.00531h0.00531h0.00531h0.00525h0.00531h0.00531h0.00531h0.00531h0.00531h0.00531h0.00531h0.00531    h0.00525h0.00531h0.00531h0.00531h0.00531h0.00531h0.00531h0.00531h0.00525h0.00531h0.00531h0.00531h0.00531h0.00531h0.00531    h0.00531h0.00525h0.00531h0.00531h0.00531h0.00531h0.00531h0.00531h0.00531h0.00531h0.00525h0.00531h0.00531h0.00531h0.00531    h0.00531h0.00531h0.00531h0.00525h0.00531h0.00531h0.00531h0.00531h0.00531h0.00531h0.00531h0.00525h0.00531h0.00531h0.00531    h0.00531h0.00531h0.00531h0.00531h0.00531h0.00525h0.00531h0.00531h0.00531h0.00531h0.00531h0.00531h0.00531h0.00525h0.00531    h0.00531h0.00531h0.00531h0.00531h0.00531h0.00531h0.00525H17.122h0.00531h0.00531h0.00531h0.00531h0.00531h0.00531h0.00531    h0.00525h0.00531h0.00531h0.00531h0.00531h0.00531h0.00531h0.00531h0.00525h0.00531h0.00531h0.00531h0.00531h0.00531h0.00531    h0.00531h0.00525h0.00531h0.00531h0.00531h0.00531h0.00531h0.00531h0.00531h0.00531h0.00525h0.00531h0.00531h0.00531h0.00531    h0.00531h0.00531h0.00531h0.00525h0.00531h0.00531h0.00531h0.00531h0.00531h0.00531h0.00531h0.00525h0.00531h0.00531h0.00531    h0.00531h0.00531h0.00531h0.00531h0.00531h0.00525h0.00531h0.00531h0.00531h0.00531h0.00183    c0.10126,0.07996,0.20349,0.15479,0.30579,0.21521c0.03955,0.02344,0.0835,0.03467,0.12695,0.03467    c0.08545,0,0.16846-0.04395,0.21533-0.12305c0.07031-0.11865,0.03076-0.27197-0.08838-0.34229    c-0.04181-0.02466-0.08435-0.05731-0.12671-0.08685v-1.02051H17.8803h-0.00531h-0.00531h-0.00525h-0.00531h-0.00531H17.8485    h-0.00531h-0.00531h-0.00531h-0.00531h-0.00525H17.8167h-0.00531h-0.00531h-0.00531h-0.00531h-0.00531h-0.00531h-0.00531h-0.00525    h-0.00531h-0.00531h-0.00531h-0.00531h-0.00531h-0.00531h-0.00531h-0.00525h-0.00531h-0.00531h-0.00531h-0.00531h-0.00531H17.7    h-0.00531h-0.00525h-0.00531h-0.00531h-0.00531H17.6682h-0.00531h-0.00531h-0.00531h-0.00531h-0.00525H17.6364h-0.00531h-0.00531    h-0.00531h-0.00531h-0.00531h-0.00531h-0.00525h-0.00531h-0.00531h-0.00531h-0.00531h-0.00531h-0.00531h-0.00531h-0.00525    h-0.00531h-0.00531h-0.00531h-0.00531h-0.00531h-0.00531H17.5197h-0.00531h-0.00525h-0.00531h-0.00531h-0.00531H17.4879h-0.00531    h-0.00531h-0.00531h-0.00525h-0.00531H17.4561h-0.00531h-0.00531h-0.00531h-0.00531h-0.00531H17.4243h-0.00531h-0.00531h-0.00531    h-0.00531h-0.00531h-0.00531h-0.00531h-0.00531h-0.00525h-0.00531h-0.00531h-0.00531h-0.00531h-0.00531h-0.00531h-0.00531    h-0.00525h-0.00531h-0.00531h-0.00531h-0.00531h-0.00531H17.3023h-0.00531h-0.00525h-0.00531h-0.00531h-0.00531H17.2705h-0.00531    h-0.00531h-0.00531h-0.00531h-0.00525H17.2387h-0.00531h-0.00531h-0.00531h-0.00531h-0.00531h-0.00531h-0.00525h-0.00531h-0.00531    h-0.00531h-0.00531h-0.00531h-0.00531h-0.00531h-0.00525h-0.00531h-0.00531h-0.00531h-0.00531h-0.00531h-0.00531H17.122h-0.00531    h-0.00525h-0.00531h-0.00531h-0.00531H17.0902h-0.00531h-0.00531h-0.00531h-0.00525h-0.00531H17.0584h-0.00531h-0.00531h-0.00531    h-0.00531h-0.00531H17.0266h-0.00531h-0.00531h-0.00531h-0.00531h-0.00531h-0.00531h-0.00531h-0.00531h-0.00525h-0.00531h-0.00531    h-0.00531h-0.00531h-0.00531h-0.00531H16.9417h-0.00525h-0.00531h-0.00531h-0.00531h-0.00531H16.9099h-0.00531h-0.00531h-0.00525    h-0.00531h-0.00531H16.8781h-0.00531h-0.00531h-0.00531h-0.00531h-0.00519c-0.07324-0.09027-0.11658-0.14777-0.11816-0.14996    c-0.08301-0.11084-0.24023-0.1333-0.3501-0.0498c-0.11035,0.08252-0.13281,0.23926-0.05029,0.34961    c0.00916,0.01208,0.08606,0.11212,0.20032,0.24976v0.86237c-2.02576-1.9577-3.29211-4.69635-3.29211-7.72931    c0-5.93262,4.82617-10.75879,10.75879-10.75879S34.7589,17.01627,34.7589,22.94888S29.93273,33.70816,24.00011,33.70816z" style="fill:#1B4A9A;"/>
        <path d="M27.14952,31.85611c-4.26221,1.52344-7.7417-0.65869-7.77637-0.68066    c-0.11621-0.0752-0.27148-0.04004-0.34521,0.0752c-0.07471,0.11621-0.0415,0.27051,0.07471,0.34521    c0.10986,0.07129,2.07666,1.31103,4.90771,1.31103c1.00781,0,2.12549-0.15723,3.30713-0.58008    c0.13037-0.04639,0.19775-0.18945,0.15137-0.31934C27.42247,31.8776,27.27941,31.81021,27.14952,31.85611z" style="fill:#1B4A9A;"/></g></g></svg>