<?xml version="1.0" ?><svg style="enable-background:new 0 0 48 48;" version="1.1" viewBox="0 0 48 48" xml:space="preserve" xmlns="http://www.w3.org/2000/svg" xmlns:xlink="http://www.w3.org/1999/xlink"><g id="Layer_2"/><g id="Layer_1"><g>
    <path d="M37.50998,23.995c0,7.76001-5.9628,13.40068-13.42282,13.40068    c-7.45996,0-13.59714-5.64067-13.59714-13.40068c0-0.81,0.07001-1.59998,0.19995-2.37c-0.00995-0.01001,0-0.02997,0-0.04999    c1.10004-6.59998,6.64001-11.62,13.31-11.62C31.45999,9.95502,37.50998,16.245,37.50998,23.995z" style="fill:#E73A3E;"/>
    <path d="M35.00998,22.94501v0.25c-0.13995,5.96002-5.01001,10.76001-11.01001,10.76001    s-10.87-4.79999-11.00995-10.76001v-0.25c0-6.08002,4.92999-11.01001,11.00995-11.01001    C30.07999,11.935,35.00998,16.86499,35.00998,22.94501z" style="fill:#F44E57;"/>
<!--    <path d="M16.68859,21.05541c-0.04823-0.16609-0.09647-0.33218-0.1447-0.49827    c-0.0308-0.10606-0.06341-0.21557-0.13486-0.2998c-0.11809-0.13921-0.31373-0.17894-0.4946-0.20364    c-0.21237-0.02901-0.43928-0.0468-0.63116,0.0487c-0.21632,0.10767-0.34432,0.34005-0.40672,0.57348    c-0.05344,0.19992-0.06724,0.418,0.01018,0.60991c0.09426,0.23369,0.30954,0.39688,0.53305,0.51323    s0.46518,0.1985,0.67702,0.33495c0.53819,0.34665,0.80254,0.98151,1.03609,1.57756    c0.08504,0.21706,0.17031,0.43479,0.22798,0.66066c0.07567,0.29638,0.10291,0.60309,0.17029,0.90146    c0.10718,0.47456,0.31702,0.92566,0.61095,1.31334c-0.05085,0.44344,0.24276,0.9325,0.60045,1.19949    s0.82436,0.36314,1.26888,0.32272c0.49812-0.04529,0.9656-0.24868,1.43607-0.4185    c0.68639-0.24777,1.40384-0.42919,2.13336-0.44687c1.70531-0.04134,3.31255,0.80427,5.01135,0.95877    c0.22984,0.0209,0.48808,0.01965,0.65688-0.13774c0.08182-0.07629,0.13129-0.18016,0.17889-0.2814    c0.86212-1.83378,1.72424-3.66756,2.58636-5.50134c0.05098-0.10844,0.10781-0.22342,0.21159-0.28332    c0.13049-0.07531,0.29404-0.04157,0.44316-0.06303c0.44944-0.06468,0.65698-0.58216,0.77853-1.01966    c0.04492-0.16169,0.0883-0.34171,0.01165-0.49099c-0.07882-0.1535-0.25925-0.22295-0.42788-0.25957    c-0.33884-0.07357-0.69489-0.06659-1.03059,0.02021c-0.08344,0.02157-0.17043,0.05112-0.22529,0.11759    c-0.0629,0.07622-0.06929,0.18237-0.08366,0.28014c-0.10816,0.73598-0.8367,1.27271-1.57774,1.33765    c-0.48282,0.04232-1.00396-0.09896-1.31979-0.4666c-0.31584-0.36764-0.35356-0.98082-0.00789-1.32055    c0.10213-0.10037,0.22895-0.17232,0.33415-0.26948c0.46663-0.43096,0.27746-1.34339-0.32204-1.55331    s-1.31655,0.38517-1.22071,1.0131c0.05648,0.37,0.33493,0.7054,0.28049,1.0757c-0.0567,0.38562-0.45687,0.62881-0.83915,0.70488    c-0.58267,0.11595-1.21355-0.039-1.6762-0.41169c-0.49885-0.40185-0.77933-1.01224-0.99013-1.61714    c-0.07178-0.20599-0.13574-0.44129-0.03413-0.63432c0.07784-0.1479,0.23448-0.23341,0.35768-0.34635    c0.36147-0.33136,0.39829-0.95929,0.07127-1.32469c-0.32702-0.3654-0.96371-0.3943-1.3164-0.0536    c-0.35269,0.34069-0.34112,0.98646,0.02929,1.30779c0.16736,0.14519,0.39234,0.22974,0.51417,0.41479    c0.1643,0.24955-0.04354,0.54908-0.15783,0.82514c-0.25129,0.60696-0.51651,1.20921-1.06997,1.56307    c-0.55346,0.35386-1.28608,0.46355-1.87825,0.17917c-0.25699-0.12342-0.49088-0.3333-0.55923-0.61008    c-0.13644-0.55258,0.41174-1.1637,0.13721-1.66229c-0.12614-0.22909-0.40254-0.34703-0.66395-0.33945    c-0.26141,0.00759-0.50875,0.12221-0.72789,0.26494c-0.18923,0.12325-0.37606,0.28934-0.41193,0.5123    c-0.07795,0.48445,0.54473,0.75441,0.7939,1.17712c0.22235,0.37722,0.11093,0.89247-0.19333,1.20738    s-0.76112,0.44768-1.1989,0.43873C17.41136,21.98277,16.86523,21.66362,16.68859,21.05541z" style="fill:#FF5767;"/>-->
    <path d="M35.00998,22.94501v0.25C34.87003,17.23499,29.99997,12.435,23.99997,12.435    s-10.87,4.79999-11.00995,10.76001v-0.25c0-6.08002,4.92999-11.01001,11.00995-11.01001    C30.07999,11.935,35.00998,16.86499,35.00998,22.94501z" style="fill:#D12F3E;"/>
    <path d="M37.50998,23.995c0,7.76001-6.04999,14.04999-13.51001,14.04999    c-7.45996,0-13.50995-6.28998-13.50995-14.04999c0-0.81,0.07001-1.59998,0.19995-2.37    c-0.04999,0.42999-0.06995,0.88-0.06995,1.32001c0,7.39001,5.98999,13.38,13.37994,13.38c7.39001,0,13.38-5.98999,13.38-13.38    c0-0.41998-0.02997-0.95001-0.06995-1.37C37.43997,22.36499,37.50998,23.17499,37.50998,23.995z" style="fill:#B41019;"/><g><g><g>
<!--    <path d="M19.6535,28.43458c-0.28223,0-0.55566-0.05713-0.83203-0.2002       c-0.50293-0.26025-1.0293-1.62842-1.17969-2.04199c-0.00195-0.00732-0.00488-0.01514-0.00684-0.02295       c-0.10156-0.25244-0.85156-2.11133-1.0791-2.78711l-0.03906-0.12158c-0.10742-0.33057-0.26855-0.83008-0.57813-1.03467       c-0.11523-0.07568-0.14746-0.23096-0.07129-0.34619c0.07813-0.11572,0.23438-0.14746,0.34668-0.0708       c0.45605,0.30078,0.65039,0.90088,0.77832,1.29785l0.03809,0.11621c0.2334,0.69629,1.07031,2.76367,1.07813,2.78467       c0.00586,0.0127,0.00977,0.02539,0.0127,0.03857c0.27539,0.75342,0.70605,1.62744,0.93066,1.74365       c0.56152,0.29297,1.1748,0.08838,2.02148-0.1958c0.77832-0.26123,1.74707-0.58545,3.02734-0.63379       c0.00391,0,0.00684,0,0.00977,0c0.13379,0,0.24512,0.10596,0.25,0.24072c0.00488,0.1377-0.10254,0.25391-0.24023,0.25928       c-1.20898,0.04492-2.13965,0.35693-2.88867,0.60791C20.64569,28.26466,20.13787,28.43458,19.6535,28.43458z" style="fill:#D12F3E;"/>-->
</g></g><g><g>
<!--    <path d="M17.76971,22.1255c-0.21973,0-0.40332-0.0249-0.51367-0.07617       c-0.15723-0.07324-0.61035-0.38818-0.7002-0.4502c-0.11328-0.0791-0.14063-0.23486-0.06152-0.34814       s0.23535-0.14111,0.34863-0.06201c0.20703,0.14502,0.53711,0.3667,0.62402,0.40723       c0.10352,0.04346,0.68848,0.05957,1.29102-0.11719c0.66406-0.19482,0.67773-0.7124,0.63086-1.08496l0.49316-0.08154       c0.14453,1.14111-0.55371,1.52002-0.9834,1.646C18.52948,22.06739,18.1076,22.1255,17.76971,22.1255z" style="fill:#D12F3E;"/>-->
</g></g><g><g>
<!--    <path d="M21.57537,21.38184c-1.18066,0-1.5625-1.021-1.56641-1.03271       c-0.04688-0.13037,0.02148-0.27344,0.15137-0.31982c0.12598-0.0459,0.27148,0.02002,0.31934,0.1499       c0.03809,0.10107,0.39941,0.96387,1.63281,0.62305c0.70605-0.19482,1.17188-0.32324,1.57324-2.45361       c0.02637-0.13525,0.14844-0.2251,0.29199-0.19922c0.13574,0.02539,0.22559,0.15625,0.2002,0.29199       c-0.41406,2.19629-0.93164,2.56689-1.93262,2.84326C21.99823,21.35255,21.77557,21.38184,21.57537,21.38184z" style="fill:#D12F3E;"/>-->
</g></g><g><g>
<!--    <path d="M17.34491,24.93409c-0.03125,0-0.0625-0.00586-0.09277-0.01807       c-0.12891-0.05127-0.19043-0.19727-0.13965-0.3252l0.63281-1.57422c0.02637-0.06494,0.07813-0.11572,0.14355-0.14063       c0.06641-0.02441,0.13867-0.02148,0.2002,0.01025c0.03223,0.01465,0.79102,0.36963,1.70215-0.22266       c0.05762-0.0376,0.12988-0.04834,0.19434-0.03369c0.02539,0.00537,2.45703,0.55811,3.65039-1.18262l0.24316-0.35449       c0.07813-0.11377,0.2334-0.14209,0.34766-0.06494c0.11328,0.07764,0.14258,0.2334,0.06445,0.34717l-0.24316,0.35498       c-1.25098,1.82324-3.54785,1.50977-4.07324,1.4082c-0.79199,0.47607-1.49707,0.38721-1.85449,0.2876l-0.54297,1.35156       C17.53729,24.87501,17.44354,24.93409,17.34491,24.93409z" style="fill:#D12F3E;"/>-->
</g></g><g><g>
<!--    <path d="M30.77264,24.83692c-0.09961,0-0.19336-0.05957-0.23242-0.15771l-0.49707-1.25293       c-0.36035,0.10107-1.05957,0.18652-1.84863-0.28809c-0.52637,0.10205-2.82617,0.4165-4.07227-1.4082l-0.24316-0.35498       c-0.07813-0.11377-0.04883-0.26953,0.06445-0.34717c0.11523-0.07715,0.27148-0.04883,0.34766,0.06494l0.24316,0.35498       c1.1875,1.73877,3.62598,1.1875,3.65039,1.18213c0.06445-0.01465,0.13672-0.00391,0.19434,0.03369       c0.90918,0.59229,1.66602,0.23779,1.69629,0.22217c0.06348-0.02979,0.13477-0.03418,0.20117-0.00879       c0.06445,0.02539,0.11719,0.07617,0.14258,0.14063l0.58594,1.47705c0.05078,0.12842-0.01172,0.27393-0.14063,0.32471       C30.83416,24.83106,30.80291,24.83692,30.77264,24.83692z" style="fill:#D12F3E;"/>-->
</g></g><g><g>
<!--    <path d="M18.63299,26.26417c-0.49121,0-0.83105-0.13965-0.85645-0.1499       c-0.12695-0.05371-0.18555-0.19971-0.13281-0.32666c0.05273-0.12744,0.2002-0.18848,0.32715-0.13428       c0.03613,0.01465,0.90137,0.35889,1.82031-0.24121c0.05762-0.0376,0.12988-0.04932,0.19434-0.03369       c0.02539,0.00586,2.45703,0.55762,3.65039-1.18262l0.24316-0.35449c0.07813-0.11426,0.2334-0.14258,0.34766-0.06494       c0.11328,0.07764,0.14258,0.2334,0.06445,0.34717l-0.24316,0.35498c-1.25098,1.82373-3.54785,1.5083-4.07324,1.4082       C19.48651,26.18018,19.01385,26.26417,18.63299,26.26417z" style="fill:#D12F3E;"/>-->
</g></g><g><g>
<!--    <path d="M29.4992,26.25196c-0.375,0-0.83301-0.08301-1.30371-0.36523       c-0.52637,0.10059-2.82715,0.4165-4.07324-1.4082l-0.24316-0.35498c-0.07813-0.11377-0.04883-0.26953,0.06445-0.34717       c0.11523-0.07764,0.27148-0.04932,0.34766,0.06494l0.24316,0.35498c1.1875,1.73926,3.62598,1.18701,3.65039,1.18213       c0.06445-0.01563,0.13672-0.00391,0.19434,0.03369c0.93066,0.60596,1.8125,0.21875,1.82129,0.21436       c0.12598-0.05713,0.27441,0,0.33105,0.12549c0.05566,0.12598,0,0.27393-0.12598,0.33057       C30.37909,26.09425,30.01776,26.25196,29.4992,26.25196z" style="fill:#D12F3E;"/>-->
</g></g><g><g>
<!--    <path d="M19.68573,20.50147c-0.68262,0-1.2373-0.55469-1.2373-1.23682s0.55469-1.23682,1.2373-1.23682       c0.68164,0,1.23633,0.55469,1.23633,1.23682S20.36737,20.50147,19.68573,20.50147z M19.68573,18.52784       c-0.40625,0-0.7373,0.33057-0.7373,0.73682s0.33105,0.73682,0.7373,0.73682s0.73633-0.33057,0.73633-0.73682       S20.09198,18.52784,19.68573,18.52784z" style="fill:#D12F3E;"/>-->
</g></g><g><g>
<!--    <path d="M15.70233,22.28028c-0.68164,0-1.23633-0.55469-1.23633-1.23682       s0.55469-1.23682,1.23633-1.23682c0.68262,0,1.23731,0.55469,1.23731,1.23682S16.38494,22.28028,15.70233,22.28028z        M15.70233,20.30665c-0.40625,0-0.73633,0.33057-0.73633,0.73682s0.33008,0.73682,0.73633,0.73682       c0.40625,0,0.73731-0.33057,0.73731-0.73682S16.10858,20.30665,15.70233,20.30665z" style="fill:#D12F3E;"/>-->
</g></g><g><g>
<!--    <path d="M28.63006,28.40626c-0.50195,0-1.03711-0.16748-1.6543-0.36084       c-0.80957-0.25342-1.72656-0.54053-2.9209-0.58496c-0.1377-0.00537-0.24512-0.12158-0.24023-0.25928       c0.00488-0.13477,0.11621-0.24072,0.25-0.24072c0.00293,0,0.00586,0,0.00977,0       c1.26074,0.04736,2.25293,0.35791,3.05078,0.60791c0.9043,0.2832,1.55859,0.48828,2.13379,0.19043       c0.21289-0.10986,0.58008-0.96631,0.79297-1.70361c0.00293-0.0166,0.00781-0.03271,0.01367-0.04736       c0.00781-0.021,0.84473-2.08838,1.07813-2.78467l0.04004-0.12207c0.12891-0.39502,0.32227-0.99268,0.77734-1.29248       c0.11523-0.07471,0.27051-0.04443,0.34668,0.07129s0.04395,0.27051-0.07129,0.34668       c-0.30859,0.20313-0.46973,0.7002-0.57715,1.02881l-0.04199,0.12744c-0.22656,0.67578-0.97656,2.53564-1.07813,2.78711       c-0.00098,0.00195-0.00098,0.00439-0.00195,0.00635c-0.11719,0.40869-0.53809,1.76221-1.04785,2.02686       C29.20819,28.34815,28.92498,28.40626,28.63006,28.40626z" style="fill:#D12F3E;"/>-->
</g></g><g><g>
<!--    <path d="M30.40448,22.1255c-0.33691,0-0.75879-0.05811-1.12891-0.16699       c-0.43066-0.12646-1.13184-0.50586-0.98438-1.63037c0.01758-0.13623,0.13184-0.24121,0.28125-0.22461       c0.13672,0.01758,0.23438,0.13379,0.2168,0.271c-0.05078,0.39111-0.03906,0.90918,0.62695,1.10449       c0.60156,0.17676,1.18457,0.16162,1.29102,0.1167c0.08691-0.04004,0.41797-0.26221,0.62598-0.40674       c0.11035-0.0791,0.26855-0.05127,0.34766,0.06201s0.05078,0.26904-0.0625,0.34814       c-0.08887,0.0625-0.54297,0.37695-0.7002,0.4502C30.8078,22.10059,30.6242,22.1255,30.40448,22.1255z" style="fill:#D12F3E;"/>-->
</g></g><g><g>
<!--    <path d="M26.59393,21.38038c-0.20117,0-0.42188-0.0293-0.66406-0.0957       c-1.00195-0.27637-1.51953-0.64697-1.93262-2.84326c-0.02539-0.13574,0.06445-0.2666,0.2002-0.29199       c0.14063-0.02637,0.26563,0.06396,0.29199,0.19922c0.40039,2.13037,0.86719,2.25928,1.57324,2.45361       c1.2334,0.33984,1.59668-0.52393,1.63379-0.62354c0.04785-0.12793,0.19141-0.19385,0.32031-0.14795       c0.12891,0.04736,0.19531,0.18896,0.14941,0.31836C28.02166,20.75098,27.52655,21.38038,26.59393,21.38038z" style="fill:#D12F3E;"/>-->
</g></g><g><g>
<!--    <path d="M28.48944,20.50147c-0.68262,0-1.2373-0.55469-1.2373-1.23682s0.55469-1.23682,1.2373-1.23682       c0.68164,0,1.23633,0.55469,1.23633,1.23682S29.17108,20.50147,28.48944,20.50147z M28.48944,18.52784       c-0.40625,0-0.7373,0.33057-0.7373,0.73682s0.33105,0.73682,0.7373,0.73682s0.73633-0.33057,0.73633-0.73682       S28.89569,18.52784,28.48944,18.52784z" style="fill:#D12F3E;"/>-->
</g></g><g><g>
<!--    <path d="M32.47186,22.28028c-0.68164,0-1.23633-0.55469-1.23633-1.23682       s0.55469-1.23682,1.23633-1.23682s1.23633,0.55469,1.23633,1.23682S33.1535,22.28028,32.47186,22.28028z M32.47186,20.30665       c-0.40625,0-0.73633,0.33057-0.73633,0.73682s0.33008,0.73682,0.73633,0.73682s0.73633-0.33057,0.73633-0.73682       S32.87811,20.30665,32.47186,20.30665z" style="fill:#D12F3E;"/>-->
</g></g><g><g>
<!--    <path d="M24.08709,18.65772c-0.68164,0-1.23633-0.55469-1.23633-1.23682       s0.55469-1.23682,1.23633-1.23682c0.68262,0,1.2373,0.55469,1.2373,1.23682S24.76971,18.65772,24.08709,18.65772z        M24.08709,16.68409c-0.40625,0-0.73633,0.33057-0.73633,0.73682s0.33008,0.73682,0.73633,0.73682       s0.7373-0.33057,0.7373-0.73682S24.49334,16.68409,24.08709,16.68409z" style="fill:#D12F3E;"/>-->
</g></g></g></g></g></svg>