<svg width="56" height="58" viewBox="0 0 56 58" fill="none" xmlns="http://www.w3.org/2000/svg">
<path d="M54.5538 28.9795C54.5538 44.2538 42.5879 56.6952 27.8881 56.6952C15.3873 56.6952 4.86755 47.7009 1.99491 35.6162C1.49964 33.4964 1.22226 31.2577 1.22226 28.9795C1.22226 27.5927 1.36096 26.1465 1.59867 24.522L1.6185 24.2049C3.97603 10.8324 14.991 1.24387 27.8881 1.24387C35.6144 1.24387 42.6474 4.67115 47.5606 10.2381C50.9086 14.0616 53.2464 18.8757 54.1379 24.304L54.1577 24.4625L54.1775 24.4823V24.6012C54.435 26.2059 54.5538 27.6323 54.5538 28.9795Z" fill="#B9D4F8"/>
<path d="M47.5606 10.2381C39.0418 3.6211 26.4315 -0.480853 15.5552 6.65122C-3.56249 19.1916 5.18449 39.5387 5.18449 39.5387C5.18449 39.5387 3.73831 38.2511 1.99491 35.6162C1.49964 33.4964 1.22226 31.2577 1.22226 28.9795C1.22226 27.5927 1.36096 26.1465 1.59867 24.522L1.6185 24.2049C3.97603 10.8324 14.991 1.24387 27.8881 1.24387C35.6144 1.24387 42.6474 4.67116 47.5606 10.2381Z" fill="white"/>
<path d="M6.97926 31.0146C7.02698 31.2385 4.06011 15.2638 20.2063 8.50114C38.2916 0.926266 48.8185 21.0616 48.8185 21.0616C48.8185 21.0616 42.9648 0.484477 21.1563 5.62719C21.1563 5.62719 2.96285 12.165 6.97926 31.0146Z" fill="white"/>
<path d="M1.88673 34.0545C1.87641 33.682 8.34546 52.5771 25.8914 53.2473C43.4373 53.9175 50.6768 41.1845 53.1799 34.6048C53.1799 34.6048 54.4036 37.1026 51.5402 41.7937C48.6768 46.4848 42.0224 56.6953 27.8881 56.6953C13.7539 56.6953 2.1905 45.0187 1.88673 34.0545Z" fill="#659BDB"/>
<path d="M7.83038 34.0894C7.83038 34.0894 18.064 49.0187 31.9395 45.6312C45.8151 42.2438 50.5704 29.9961 48.1389 18.7897C48.1389 18.7897 55.5571 36.0498 38.6721 45.7941C21.7871 55.5385 8.29371 39.8835 7.83038 34.0894Z" fill="#659BDB"/>
<path d="M54.7618 24.1447C54.6337 23.3883 54.4756 22.6378 54.2881 21.8973C53.8628 20.2175 53.3108 18.5765 52.6023 16.9942C51.9075 15.4424 51.0749 13.9525 50.1164 12.5482C49.1696 11.1612 48.1 9.85789 46.9223 8.66054C45.7524 7.47114 44.476 6.38642 43.1111 5.42695C41.7462 4.46749 40.293 3.6336 38.774 2.94328C37.2406 2.24639 35.6406 1.69629 34.0022 1.30538C32.3254 0.90533 30.6094 0.672509 28.8868 0.609074C28.5614 0.597088 28.2357 0.591125 27.9101 0.591125C26.1234 0.591125 24.3372 0.77204 22.5875 1.13389C20.8749 1.48807 19.1985 2.01513 17.5904 2.7025C16.0003 3.38218 14.4776 4.21801 13.0479 5.19052C11.6191 6.16234 10.2834 7.27023 9.06119 8.49153C7.83087 9.72087 6.71563 11.0649 5.73188 12.4991C4.73562 13.9515 3.87445 15.4963 3.16139 17.1068C2.42661 18.7663 1.84087 20.5009 1.4328 22.2696C0.930017 24.4387 0.654266 26.6824 0.654266 28.91C0.654266 44.5249 12.8815 57.228 27.9101 57.228C42.9387 57.228 55.1649 44.5249 55.1649 28.91C55.1649 27.3198 55.0285 25.7194 54.7618 24.1447ZM27.9101 56.2374C15.8373 56.2374 5.66811 47.7077 2.60889 36.1445C6.41575 46.4444 16.3056 53.821 27.912 53.821C39.5032 53.821 49.3823 46.4636 53.2001 36.1852C50.1278 47.7277 39.968 56.2374 27.9101 56.2374ZM27.912 52.8304C13.5731 52.8304 1.90698 41.1643 1.90698 26.8254C1.90698 24.5654 2.3435 22.3713 3.03549 20.2271C3.5842 18.5269 4.29637 16.8796 5.16049 15.3159C6.01005 13.7786 7.00624 12.3223 8.13311 10.9749C9.24854 9.64111 10.4919 8.41423 11.8432 7.32C13.1902 6.2292 14.6444 5.2706 16.1805 4.46733C17.7269 3.6587 19.3558 3.00812 21.0349 2.53289C22.7504 2.0474 24.5171 1.7456 26.2963 1.63272C26.8335 1.59864 27.3718 1.58166 27.9101 1.58166C40.9555 1.58166 51.7791 11.5395 53.8043 24.528C53.873 25.2919 53.917 26.0461 53.917 26.8254C53.917 41.1643 42.2509 52.8304 27.912 52.8304Z" fill="#1B4A9A"/>
<path d="M27.9101 4.52246C15.6113 4.52246 5.6051 14.5286 5.6051 26.8274C5.6051 39.1272 15.6113 49.1333 27.9101 49.1333C40.2088 49.1333 50.215 39.1271 50.215 26.8274C50.215 14.5286 40.2088 4.52246 27.9101 4.52246ZM27.9101 48.1428C22.2298 48.1428 17.0746 45.8954 13.2502 42.2606H13.2542H13.2647H13.2753H13.2858H13.2963H13.3067H13.3172H13.3277H13.3383H13.3488H13.3593H13.3698H13.3803H13.3909H13.4013H13.4118H13.4223H13.4328H13.4433H13.4539H13.4644H13.4749H13.4853H13.4958H13.5063H13.5169H13.5274H13.5379H13.5484H13.5589H13.5695H13.5799H13.5904H13.6009H13.6114H13.6219H13.6325H13.643H13.6535H13.6639H13.6744H13.6849H13.6955H13.706H13.7165H13.727H13.7375H13.7479H13.7585H13.769H13.7795H13.79H13.8005H13.8111H13.8216H13.8321H13.8425H13.853H13.8635H13.8741H13.8846H13.8951H13.9056H13.9161H13.9265H13.9371H13.9476H13.9581H13.9686H13.9791H13.9897H14.0002H14.0106H14.0211H14.0316H14.0421H14.0527H14.0632H14.0737H14.0842H14.0947H14.1051H14.1157H14.1262H14.1367H14.1472H14.1577H14.1683H14.1788H14.1892H14.1997H14.2102H14.2207H14.2313H14.2418H14.2523H14.2628H14.2732H14.2837H14.2943H14.3048H14.3153H14.3258H14.3363H14.3469H14.3574H14.3678H14.3783H14.3888H14.3993H14.4098H14.4204H14.4309H14.4414H14.4518H14.4623H14.4729H14.4834H14.4939H14.5044H14.5149H14.5255H14.5358H14.5464H14.5569H14.5674H14.5779H14.5884H14.599H14.6095H14.62H14.6304H14.6409H14.6514H14.662H14.6725H14.683H14.6935H14.704H14.7144H14.725H14.7355H14.746H14.7565H14.767H14.7776H14.7881H14.7985H14.809H14.8195H14.83H14.8406H14.8511H14.8616H14.8721H14.8826H14.893H14.9036H14.9141H14.9246H14.9351H14.9387C15.1394 42.419 15.3419 42.5673 15.5446 42.687C15.6229 42.7334 15.71 42.7557 15.7961 42.7557C15.9653 42.7557 16.1298 42.6686 16.2227 42.5119C16.3619 42.2768 16.2836 41.9731 16.0476 41.8338C15.9647 41.7849 15.8805 41.7202 15.7965 41.6617V39.64H15.786H15.7755H15.765H15.7546H15.7441H15.7335H15.723H15.7125H15.702H15.6915H15.6809H15.6705H15.66H15.6495H15.639H15.6285H15.6179H15.6074H15.5969H15.5864H15.576H15.5655H15.5549H15.5444H15.5339H15.5234H15.5129H15.5023H15.4919H15.4814H15.4709H15.4604H15.4499H15.4393H15.4288H15.4183H15.4079H15.3974H15.3869H15.3763H15.3658H15.3553H15.3448H15.3343H15.3237H15.3133H15.3028H15.2923H15.2818H15.2713H15.2607H15.2502H15.2397H15.2293H15.2188H15.2083H15.1977H15.1872H15.1767H15.1662H15.1557H15.1453H15.1347H15.1242H15.1137H15.1032H15.0927H15.0821H15.0716H15.0611H15.0507H15.0402H15.0297H15.0191H15.0086H14.9981H14.9876H14.9771H14.9667H14.9561H14.9456H14.9351H14.9246H14.9141H14.9035H14.893H14.8826H14.8721H14.8616H14.8511H14.8405H14.83H14.8195H14.809H14.7985H14.7881H14.7775H14.767H14.7565H14.746H14.7355H14.7249H14.7144H14.704H14.6935H14.683H14.6725H14.6619H14.6514H14.6409H14.6304H14.62H14.6095H14.599H14.5884H14.5779H14.5674H14.5569H14.5464H14.5358H14.5255H14.5149H14.5044H14.4939H14.4834H14.4729H14.4623H14.4518H14.4414H14.4309H14.4204H14.4098H14.3993H14.3888H14.3783H14.3678H14.3574H14.3469H14.3363H14.3258H14.3153H14.3048H14.2943H14.2837H14.2732H14.2628H14.2523H14.2418H14.2313H14.2207H14.2102H14.1997H14.1892H14.1788H14.1683H14.1577H14.1472H14.1367H14.1262H14.1157H14.1051H14.0947H14.0842H14.0737H14.0632H14.0527H14.0421H14.0316H14.0211H14.0106H14.0002H13.9897H13.9791H13.9686H13.9581H13.9476H13.9371H13.9265H13.9161H13.9056H13.8951H13.8846H13.8741H13.8635H13.853H13.8425H13.8321H13.8216H13.8111H13.8005H13.79H13.7795H13.769H13.7585H13.7482C13.6031 39.4611 13.5172 39.3472 13.5141 39.3429C13.3496 39.1233 13.0382 39.0788 12.8205 39.2442C12.6019 39.4077 12.5574 39.7182 12.7209 39.9368C12.739 39.9608 12.8914 40.159 13.1177 40.4316V42.1401C9.10446 38.2617 6.59568 32.8361 6.59568 26.8274C6.59568 15.0742 16.1569 5.51304 27.9101 5.51304C39.6633 5.51304 49.2245 15.0742 49.2245 26.8274C49.2245 38.5806 39.6633 48.1428 27.9101 48.1428Z" fill="#1B4A9A"/>
<path d="M34.1494 44.4736C25.7055 47.4917 18.8122 43.1686 18.7435 43.1251C18.5133 42.9761 18.2057 43.0458 18.0596 43.2741C17.9116 43.5043 17.9774 43.81 18.2076 43.958C18.4253 44.0992 22.3217 46.5553 27.9304 46.5553C29.9269 46.5553 32.1412 46.2438 34.4822 45.4061C34.7404 45.3142 34.8739 45.0308 34.782 44.7734C34.6901 44.5161 34.4067 44.3826 34.1494 44.4736Z" fill="#1B4A9A"/>
</svg>
